<?xml version="1.0" encoding="UTF-8" standalone="no"?>
<svg
   xmlns:dc="http://purl.org/dc/elements/1.1/"
   xmlns:cc="http://creativecommons.org/ns#"
   xmlns:rdf="http://www.w3.org/1999/02/22-rdf-syntax-ns#"
   xmlns:svg="http://www.w3.org/2000/svg"
   xmlns="http://www.w3.org/2000/svg"
   xmlns:sodipodi="http://sodipodi.sourceforge.net/DTD/sodipodi-0.dtd"
   xmlns:inkscape="http://www.inkscape.org/namespaces/inkscape"
   sodipodi:docname="desain2.svg"
   inkscape:version="1.0 (4035a4fb49, 2020-05-01)"
   id="svg508"
   version="1.1"
   viewBox="0 0 360.46686 203.83353"
   height="203.83353mm"
   width="360.46686mm">
  <defs
     id="defs502" />
  <sodipodi:namedview
     inkscape:object-paths="false"
     inkscape:snap-bbox="true"
     fit-margin-bottom="0"
     fit-margin-right="0"
     fit-margin-left="0"
     fit-margin-top="0"
     inkscape:window-maximized="1"
     inkscape:window-y="-8"
     inkscape:window-x="-8"
     inkscape:window-height="705"
     inkscape:window-width="1366"
     showgrid="false"
     inkscape:document-rotation="0"
     inkscape:current-layer="layer1"
     inkscape:document-units="mm"
     inkscape:cy="933.39578"
     inkscape:cx="292.196"
     inkscape:zoom="0.49497475"
     inkscape:pageshadow="2"
     inkscape:pageopacity="0.0"
     borderopacity="1.0"
     bordercolor="#666666"
     pagecolor="#ffffff"
     id="base" />
  <metadata
     id="metadata505">
    <rdf:RDF>
      <cc:Work
         rdf:about="">
        <dc:format>image/svg+xml</dc:format>
        <dc:type
           rdf:resource="http://purl.org/dc/dcmitype/StillImage" />
        <dc:title />
      </cc:Work>
    </rdf:RDF>
  </metadata>
  <g
     transform="translate(125.80486,-35.284992)"
     id="layer1"
     inkscape:groupmode="layer"
     inkscape:label="Layer 1">
    <rect
       transform="rotate(90)"
       y="-234.162"
       x="35.784992"
       height="359.46686"
       width="202.83353"
       id="rect484"
       style="fill:none;fill-opacity:1;stroke:#5aa061;stroke-width:1;stroke-linecap:round;stroke-linejoin:round;stroke-opacity:1" />
    <rect
       style="fill:none;fill-opacity:1;stroke:#5aa061;stroke-width:1.04758;stroke-linecap:round;stroke-linejoin:round;stroke-opacity:1"
       id="rect486"
       width="202.77153"
       height="289.99408"
       x="-238.58752"
       y="-90.568466"
       transform="rotate(-90)" />
    <rect
       y="35.637615"
       x="-125.45224"
       height="17.815586"
       width="359.7616"
       id="rect624"
       style="fill:#5aa161;stroke:#5aa061;stroke-width:0.705248;stroke-linecap:round;stroke-linejoin:round;stroke-opacity:1" />
    <g
       id="g57"
       transform="translate(-0.43929055,-3.9165649)">
      <rect
         y="88.201653"
         x="107.78442"
         height="52.916664"
         width="52.916664"
         id="rect31"
         style="fill:#5aa161;stroke:#ffffff;stroke-width:1;stroke-linecap:round;stroke-linejoin:round" />
      <rect
         style="fill:#5aa161;stroke:#ffffff;stroke-width:1;stroke-linecap:round;stroke-linejoin:round"
         id="rect33"
         width="52.916664"
         height="52.916664"
         x="54.86776"
         y="88.201653" />
      <rect
         style="fill:#14854f;stroke:#ffffff;stroke-width:1;stroke-linecap:round;stroke-linejoin:round;fill-opacity:1"
         id="rect35"
         width="52.916664"
         height="52.916664"
         x="107.78442"
         y="141.11833" />
      <rect
         y="141.11833"
         x="54.86776"
         height="52.916664"
         width="52.916664"
         id="rect37"
         style="fill:#5aa161;stroke:#ffffff;stroke-width:1;stroke-linecap:round;stroke-linejoin:round" />
      <path
         d="m -50.965352,88.201658 v 52.916662 52.91667 H 1.9513136 54.86798 V 141.11832 88.201658 H 1.9513136 Z"
         style="fill:#5aa161;stroke:#ffffff;stroke-width:1;stroke-linecap:round;stroke-linejoin:round"
         id="rect39" />
    </g>
    <g
       transform="matrix(1.2847276,0,0,1.2847276,-65.73013,29.072995)"
       id="g288"
       style="fill:#ffffff">
      <g
         transform="matrix(0.69261023,0,0,0.69261023,-833.51607,105.8034)"
         style="font-style:normal;font-weight:normal;font-size:27.095px;line-height:1.25;font-family:sans-serif;fill:#ffffff;fill-opacity:1;stroke:none;stroke-width:0.677378"
         id="g276"
         aria-label="المأثورات">
        <path
           id="path252"
           style="font-style:normal;font-iant:normal;font-weight:normal;font-stretch:normal;font-family:Mothanna;-inkscape-font-specification:Mothanna;fill:#ffffff;fill-opacity:1;stroke-width:0.677378"
           d="m 1327.2663,-44.807956 q -0.026,0.502739 -0.1852,0.846719 -0.2911,0.714418 -1.1907,0.714418 -0.8997,0 -1.2436,-0.608579 -0.079,-0.132299 -0.1853,-0.661499 v -15.505536 q 0,-0.37044 0.1853,-0.767339 0.3704,-0.714419 1.2436,-0.714419 0.8467,0 1.2171,0.714419 0.053,0.10584 0.1588,0.767339 z" />
        <path
           id="path254"
           style="font-style:normal;font-iant:normal;font-weight:normal;font-stretch:normal;font-family:Mothanna;-inkscape-font-specification:Mothanna;fill:#ffffff;fill-opacity:1;stroke-width:0.677378"
           d="m 1321.3128,-46.236794 q 0,1.587598 -0.8996,2.328476 -0.8203,0.661499 -2.6196,0.661499 h -1.27 v -2.645996 h 1.0319 0.027 q 0.4762,-0.05292 0.6879,-0.291059 0.2382,-0.23814 0.2382,-0.740879 v -13.04476 q 0.079,-0.55566 0.1587,-0.714419 0.3705,-0.661499 1.2436,-0.661499 0.8468,0 1.2172,0.608579 0.1058,0.370439 0.1852,0.767339 z" />
        <path
           id="path256"
           style="font-style:normal;font-iant:normal;font-weight:normal;font-stretch:normal;font-family:Mothanna;-inkscape-font-specification:Mothanna;fill:#ffffff;fill-opacity:1;stroke-width:0.677378"
           d="m 1311.7343,-45.998654 q -0.635,-0.608579 -1.4553,-0.608579 -0.8732,0 -1.4553,0.608579 -0.5821,0.608579 -0.5821,1.402377 0,0.846719 0.5821,1.428838 0.6086,0.608579 1.4553,0.608579 0.8203,0 1.4288,-0.582119 0.6086,-0.555659 0.6086,-1.455298 0,-0.793798 -0.5821,-1.402377 z m 4.7893,2.751835 h -1.8522 q -0.026,0.05292 -0.053,0.18522 -0.2381,0.687959 -0.3704,0.926099 -0.1323,0.238139 -0.5027,0.661499 -0.4499,0.502739 -1.376,1.005478 -0.8467,0.44982 -2.3284,0.44982 -1.9052,0 -3.1488,-1.455298 -0.1587,-0.18522 -0.291,-0.37044 -0.1323,-0.185219 -0.2117,-0.317519 -0.079,-0.10584 -0.1852,-0.31752 -0.079,-0.185219 -0.1059,-0.238139 -0.026,-0.05292 -0.1323,-0.29106 -0.079,-0.21168 -0.079,-0.23814 h -1.8522 v -2.645996 h 1.8522 q 0.2381,-0.582119 0.3175,-0.740878 0.079,-0.18522 0.2381,-0.44982 0.1852,-0.264599 0.4498,-0.582119 0.1323,-0.21168 0.5822,-0.582119 1.1377,-0.979019 2.8047,-0.979019 1.2701,0 2.1168,0.47628 0.8732,0.502739 1.323,1.031938 0.1323,0.15876 0.2381,0.34398 0.1323,0.158759 0.2382,0.396899 0.1058,0.21168 0.1587,0.34398 0.053,0.105839 0.1588,0.396899 0.1323,0.2646 0.1588,0.343979 h 1.8522 z" />
        <path
           id="path258"
           style="font-style:normal;font-iant:normal;font-weight:normal;font-stretch:normal;font-family:Mothanna;-inkscape-font-specification:Mothanna;fill:#ffffff;fill-opacity:1;stroke-width:0.677378"
           d="m 1304.0345,-43.246819 h -2.8577 q -0.7674,0 -1.323,-0.158759 -0.5292,-0.18522 -0.8203,-0.42336 -0.2646,-0.238139 -0.4233,-0.687959 -0.1588,-0.449819 -0.1853,-0.820258 -0.026,-0.37044 -0.026,-0.952559 v -6.95897 q 0,-0.767338 0.3969,-1.270078 0.3704,-0.449819 1.0848,-0.449819 0.6615,0 1.0055,0.555659 0.2911,0.44982 0.2911,1.296538 v 6.112251 q 0,0.07938 0,0.21168 0,0.1323 0,0.15876 0,0.343979 0.1323,0.529199 0.1587,0.15876 0.635,0.211679 h 2.0904 z" />
        <path
           id="path260"
           style="font-style:normal;font-iant:normal;font-weight:normal;font-stretch:normal;font-family:Mothanna;-inkscape-font-specification:Mothanna;fill:#ffffff;fill-opacity:1;stroke-width:0.677378"
           d="m 1302.7115,-56.847238 q 0,0.793799 -0.8203,0.793799 h -4.0219 q -0.3969,-0.02646 -0.5821,-0.05292 -0.1853,-0.02646 -0.3705,-0.21168 -0.1852,-0.185219 -0.1852,-0.555659 0,-0.740879 1.0584,-0.793799 0.053,0 0.079,0 l -0.2382,-0.449819 q -0.1323,-0.396899 -0.1323,-0.793799 0,-1.349458 1.1114,-2.169717 0.5556,-0.396899 1.4288,-0.423359 0.053,-0.02646 0.1058,-0.02646 1.7199,0 2.4079,1.799277 0,0.873179 -0.7144,0.873179 -0.3175,0 -0.5557,-0.18522 -0.1058,-0.132299 -0.2646,-0.370439 -0.1323,-0.23814 -0.2117,-0.31752 -0.053,-0.105839 -0.2646,-0.185219 -0.1852,-0.07938 -0.4762,-0.07938 -0.5557,0 -0.8203,0.343979 -0.2646,0.34398 -0.2646,0.820259 0,0.423359 0.2117,0.687959 0.1058,0.15876 0.2646,0.2646 0.1323,0.105839 0.2381,0.132299 0.079,0.02646 0.1852,0.05292 0.1323,0.02646 0.1588,0.02646 h 1.8522 q 0.8203,0 0.8203,0.820259 z" />
        <path
           id="path262"
           style="font-style:normal;font-iant:normal;font-weight:normal;font-stretch:normal;font-family:Mothanna;-inkscape-font-specification:Mothanna;fill:#ffffff;fill-opacity:1;stroke-width:0.677378"
           d="m 1293.1065,-45.257776 q 0,0.07938 -0.027,0.23814 0,0.1323 -0.1323,0.476279 -0.1058,0.31752 -0.3175,0.608579 -0.1852,0.2646 -0.6086,0.47628 -0.3969,0.211679 -0.9525,0.211679 h -4.2336 v -2.645996 h 2.4343 q 1.1907,0 1.1907,-1.137778 v -4.048374 q 0.079,-0.529199 0.1588,-0.687959 0.3704,-0.687959 1.1642,-0.687959 0.7938,0 1.1378,0.687959 0.1058,0.23814 0.1852,0.687959 z" />
        <path
           id="path264"
           style="font-style:normal;font-iant:normal;font-weight:normal;font-stretch:normal;font-family:Mothanna;-inkscape-font-specification:Mothanna;fill:#ffffff;fill-opacity:1;stroke-width:0.677378"
           d="m 1293.0271,-59.784293 q 0,0.529199 -0.4498,1.031938 -0.3969,0.423359 -1.0055,0.423359 -0.6086,0 -1.0055,-0.423359 -0.4498,-0.423359 -0.4498,-1.031938 0,-0.55566 0.4234,-0.979019 0.5027,-0.476279 1.0319,-0.476279 0.5292,0 0.979,0.476279 0.4763,0.449819 0.4763,0.979019 z m 2.302,3.968994 q 0,0.555659 -0.4233,1.005478 -0.4234,0.449819 -1.0055,0.449819 -0.6615,0 -1.032,-0.396899 -0.4233,-0.449819 -0.4233,-1.058398 0,-0.5292 0.4233,-1.005479 0.3969,-0.449819 1.032,-0.449819 0.6086,0 1.0055,0.396899 0.4233,0.44982 0.4233,1.058399 z m -4.5511,0 q 0,0.608579 -0.3969,1.005478 -0.4763,0.449819 -1.0319,0.449819 -0.6086,0 -1.0055,-0.423359 -0.4498,-0.423359 -0.4498,-1.031938 0,-0.5292 0.4233,-1.005479 0.3969,-0.449819 1.032,-0.449819 0.6086,0 1.0319,0.423359 0.3969,0.3969 0.3969,1.031939 z" />
        <path
           id="path266"
           style="font-style:normal;font-iant:normal;font-weight:normal;font-stretch:normal;font-family:Mothanna;-inkscape-font-specification:Mothanna;fill:#ffffff;fill-opacity:1;stroke-width:0.677378"
           d="m 1286.809,-45.892815 v 2.645996 h -3.7044 q -2.0903,3.704395 -2.4343,4.207134 -0.2911,0.42336 -0.635,0.476279 -0.2117,0.05292 -0.344,0.05292 -0.2646,0 -0.5557,-0.158759 -0.5027,-0.2646 -0.5821,-0.687959 -0.079,-0.3969 0.1058,-0.820259 0.1323,-0.34398 1.7464,-3.069356 -1.958,0 -3.1223,-1.058398 -0.8202,-0.767339 -1.1377,-1.746357 -0.3176,-0.979019 -0.3176,-1.719898 0.1059,-2.302016 1.7729,-3.625014 1.27,-1.005479 2.8841,-1.005479 1.7993,0 3.2281,1.375918 1.4024,1.375918 1.4024,3.201655 0,0.740879 -0.2911,1.375918 l -0.2381,0.555659 z m -6.4298,0.1323 q 0.7674,0 1.4024,-0.555659 0.6351,-0.555659 0.6351,-1.455298 0,-0.846718 -0.6086,-1.428838 -0.5821,-0.608579 -1.4289,-0.608579 -0.8202,0 -1.4553,0.582119 -0.6085,0.58212 -0.6085,1.455298 0,0.793799 0.6085,1.402378 0.6615,0.608579 1.4553,0.608579 z" />
        <path
           id="path268"
           style="font-style:normal;font-iant:normal;font-weight:normal;font-stretch:normal;font-family:Mothanna;-inkscape-font-specification:Mothanna;fill:#ffffff;fill-opacity:1;stroke-width:0.677378"
           d="m 1271.3035,-52.745944 q 0.3969,0 0.6615,0.1323 0.2646,0.105839 0.3969,0.396899 0.1587,0.291059 0.1852,0.476279 0.053,0.18522 0.1323,0.582119 v 9.631426 q 0,0.767339 -0.1323,1.349458 -0.1058,0.608579 -0.3175,0.926098 -0.2117,0.31752 -0.3705,0.47628 -0.1587,0.185219 -0.3704,0.291059 l -0.2117,0.10584 q -0.4498,0.1323 -0.6615,0.1323 -0.079,0 -0.3704,0 -0.1059,0 -0.2382,0 -0.1058,0 -0.1323,0 -0.079,0 -0.1323,0 -1.7463,0 -1.7463,-1.296538 0,-0.661499 0.291,-0.979019 0.3176,-0.317519 0.6615,-0.343979 0.3705,-0.02646 0.6615,-0.21168 0.2911,-0.15876 0.2911,-0.555659 0,-0.05292 0,-0.15876 0,-0.07938 0,-0.10584 l -0.026,-9.260986 v -0.02646 q 0,-0.608579 0.3176,-1.084858 0.3175,-0.476279 1.0848,-0.476279 z" />
        <path
           id="path270"
           style="font-style:normal;font-iant:normal;font-weight:normal;font-stretch:normal;font-family:Mothanna;-inkscape-font-specification:Mothanna;fill:#ffffff;fill-opacity:1;stroke-width:0.677378"
           d="m 1264.8208,-44.807956 q -0.026,0.502739 -0.1852,0.846719 -0.2911,0.714418 -1.1907,0.714418 -0.8997,0 -1.2436,-0.608579 -0.079,-0.132299 -0.1853,-0.661499 v -15.505536 q 0,-0.37044 0.1853,-0.767339 0.3704,-0.714419 1.2436,-0.714419 0.8467,0 1.2171,0.714419 0.053,0.10584 0.1588,0.767339 z" />
        <path
           id="path272"
           style="font-style:normal;font-iant:normal;font-weight:normal;font-stretch:normal;font-family:Mothanna;-inkscape-font-specification:Mothanna;fill:#ffffff;fill-opacity:1;stroke-width:0.677378"
           d="m 1258.1793,-43.828938 q -0.2116,0.21168 -0.5556,0.37044 -0.3175,0.15876 -0.4763,0.185219 -0.1588,0.02646 -0.2117,0.02646 h -14.8176 q -0.8467,0 -1.7992,-0.343979 -0.9526,-0.34398 -1.6141,-1.031938 -1.1907,-1.164239 -1.1907,-3.228116 0,-2.010957 1.1907,-3.254575 0.635,-0.661499 1.667,-1.005478 1.0584,-0.34398 1.7463,-0.34398 h 7.4882 q 0.5557,0.07938 0.7144,0.15876 0.6615,0.34398 0.6615,1.164238 0,0.820259 -0.635,1.164239 -0.1588,0.07938 -0.7409,0.158759 h -7.3559 q -0.2116,0 -0.5027,0.07938 -0.2911,0.05292 -0.7409,0.23814 -0.4233,0.15876 -0.7144,0.635039 -0.2911,0.449819 -0.2911,1.111318 0,0.608579 0.2911,1.031939 0.2911,0.396899 0.7144,0.582119 0.4498,0.15876 0.7409,0.211679 0.3175,0.05292 0.5027,0.05292 h 12.7273 q 1.2171,0 1.2171,-1.111318 v -4.101294 q 0.053,-0.396899 0.1853,-0.687959 0.3175,-0.687959 1.1377,-0.687959 0.8203,0 1.1643,0.687959 0.1323,0.2646 0.1587,0.687959 v 5.900571 q 0,0.635039 -0.6615,1.349458 z" />
        <path
           id="path274"
           style="font-style:normal;font-iant:normal;font-weight:normal;font-stretch:normal;font-family:Mothanna;-inkscape-font-specification:Mothanna;fill:#ffffff;fill-opacity:1;stroke-width:0.677378"
           d="m 1255.0835,-59.757834 q 0,0.502739 -0.4498,0.979019 -0.4234,0.423359 -0.979,0.423359 0,0 -0.026,0 -0.026,0 -0.026,0 -0.5557,0 -0.9261,-0.3969 -0.4234,-0.396899 -0.4234,-1.005478 0,-0.582119 0.4234,-1.031938 0.3969,-0.42336 0.979,-0.42336 0.5821,0 1.0055,0.449819 0.4233,0.3969 0.4233,1.005479 z m 0,4.498193 q 0,0.502739 -0.4498,0.979019 -0.4498,0.449819 -0.979,0.449819 -0.5557,0 -0.979,-0.449819 -0.4234,-0.3969 -0.4234,-0.979019 0,-0.582119 0.4234,-1.031938 0.3704,-0.3969 0.979,-0.3969 0.6086,0 1.0055,0.3969 0.4233,0.449819 0.4233,1.031938 z" />
      </g>
      <text
         id="text280"
         y="89.826935"
         x="24.814039"
         style="font-style:normal;font-weight:normal;font-size:8.61177px;line-height:1.25;font-family:sans-serif;fill:#ffffff;fill-opacity:1;stroke:none;stroke-width:0.215295"
         xml:space="preserve"><tspan
           style="font-style:normal;font-iant:normal;font-weight:bold;font-stretch:normal;font-family:Raleway;-inkscape-font-specification:'Raleway Bold';fill:#ffffff;fill-opacity:1;stroke-width:0.215295"
           y="89.826935"
           x="24.814039"
           id="tspan278"
           sodipodi:role="line">Al-MA'TSURAT</tspan></text>
      <text
         xml:space="preserve"
         style="font-style:normal;font-weight:normal;font-size:6.3503px;line-height:1.25;font-family:sans-serif;fill:#ffffff;fill-opacity:1;stroke:none;stroke-width:0.158757"
         x="54.692703"
         y="99.116417"
         id="text286"><tspan
           id="tspan282"
           sodipodi:role="line"
           x="54.692703"
           y="99.116417"
           style="font-style:normal;font-iant:normal;font-weight:normal;font-stretch:normal;font-family:Raleway;-inkscape-font-specification:Raleway;text-align:center;text-anchor:middle;fill:#ffffff;fill-opacity:1;stroke-width:0.158757">Do'a Dzikir Pagi</tspan><tspan
           id="tspan284"
           sodipodi:role="line"
           x="54.692703"
           y="107.13908"
           style="font-style:normal;font-iant:normal;font-weight:normal;font-stretch:normal;font-family:Raleway;-inkscape-font-specification:Raleway;text-align:center;text-anchor:middle;fill:#ffffff;fill-opacity:1;stroke-width:0.158757">dan Petang</tspan></text>
    </g>
    <text
       xml:space="preserve"
       style="font-style:normal;font-weight:normal;font-size:10.5833px;line-height:1.25;font-family:sans-serif;fill:#000000;fill-opacity:1;stroke:none;stroke-width:0.264583"
       x="67.698273"
       y="127.2257"
       id="text61"><tspan
         sodipodi:role="line"
         id="tspan59"
         x="67.698273"
         y="127.2257"
         style="fill:#ffffff;stroke-width:0.264583">PAGI</tspan></text>
  </g>
</svg>
