<?xml version="1.0" encoding="UTF-8" standalone="no"?>
<svg
   xmlns:dc="http://purl.org/dc/elements/1.1/"
   xmlns:cc="http://creativecommons.org/ns#"
   xmlns:rdf="http://www.w3.org/1999/02/22-rdf-syntax-ns#"
   xmlns:svg="http://www.w3.org/2000/svg"
   xmlns="http://www.w3.org/2000/svg"
   xmlns:sodipodi="http://sodipodi.sourceforge.net/DTD/sodipodi-0.dtd"
   xmlns:inkscape="http://www.inkscape.org/namespaces/inkscape"
   height="512"
   width="512"
   inkscape:version="1.0 (4035a4fb49, 2020-05-01)"
   sodipodi:docname="contact.svg"
   xml:space="preserve"
   viewBox="0 0 512 512"
   y="0px"
   x="0px"
   id="Capa_1"
   version="1.1"><metadata
   id="metadata45"><rdf:RDF><cc:Work
       rdf:about=""><dc:format>image/svg+xml</dc:format><dc:type
         rdf:resource="http://purl.org/dc/dcmitype/StillImage" /><dc:title /></cc:Work></rdf:RDF></metadata><defs
   id="defs43" /><sodipodi:namedview
   fit-margin-bottom="0"
   fit-margin-right="0"
   fit-margin-left="0"
   fit-margin-top="0"
   inkscape:current-layer="Capa_1"
   inkscape:window-maximized="1"
   inkscape:window-y="-8"
   inkscape:window-x="-8"
   inkscape:cy="426.38177"
   inkscape:cx="511.43783"
   inkscape:zoom="0.60958965"
   showgrid="false"
   id="namedview41"
   inkscape:window-height="705"
   inkscape:window-width="1366"
   inkscape:pageshadow="2"
   inkscape:pageopacity="0"
   guidetolerance="10"
   gridtolerance="10"
   objecttolerance="10"
   borderopacity="1"
   bordercolor="#666666"
   pagecolor="#ffffff"
   inkscape:document-rotation="0" />



<rect
   style="fill:#14854f;stroke:none;stroke-width:22.6772;stroke-linecap:round;stroke-linejoin:round"
   id="rect1988"
   width="511.99994"
   height="511.99994"
   x="-0.28491139"
   y="-0.28492004" /><circle
   id="circle2"
   r="221.00742"
   cy="256"
   cx="256"
   style="fill:#fea832;stroke-width:0.86331;fill-opacity:1" />
<g
   id="g10">
</g>
<g
   id="g12">
</g>
<g
   id="g14">
</g>
<g
   id="g16">
</g>
<g
   id="g18">
</g>
<g
   id="g20">
</g>
<g
   id="g22">
</g>
<g
   id="g24">
</g>
<g
   id="g26">
</g>
<g
   id="g28">
</g>
<g
   id="g30">
</g>
<g
   id="g32">
</g>
<g
   id="g34">
</g>
<g
   id="g36">
</g>
<g
   id="g38">
</g>
<path
   id="path880"
   d="M 371.69576,345.15859"
   style="fill:#fea832;fill-opacity:1;stroke:#ffffff;stroke-width:32;stroke-linejoin:round;stroke-linecap:square" /><path
   id="path878"
   d="M 371.69576,345.15859 H 140.30428 c -11.96502,-0.0367 -21.65906,-9.72793 -21.69295,-21.69295 V 200.82703 l 133.84664,74.62318 c 1.08464,0.59599 2.30205,0.92082 3.54205,0.9406 1.24565,0.0141 2.4687,-0.31071 3.54205,-0.9406 l 133.84662,-74.62318 v 122.63861 c -0.009,11.97631 -9.71662,21.68166 -21.69293,21.69295 z"
   style="fill:#fea832;fill-opacity:1;stroke:#ffffff;stroke-width:35;stroke-linejoin:round;stroke-linecap:round;stroke-miterlimit:4;stroke-dasharray:none" /><path
   id="path40"
   d="m 140.30428,166.8414 h 231.39148 c 10.41431,0.0283 19.35134,7.42023 21.33142,17.64248 L 256.00002,260.8442 118.97288,184.48388 c 1.98004,-10.22225 10.91708,-17.61423 21.3314,-17.64248 z"
   style="fill:#fea832;fill-opacity:1;stroke:#ffffff;stroke-width:35;stroke-linejoin:round;stroke-linecap:round;stroke-miterlimit:4;stroke-dasharray:none" /><path
   id="path26"
   d="m 140.30428,166.8414 h 231.39148 c 10.41431,0.0283 19.35134,7.42023 21.33142,17.64248 L 256.00002,260.8442 118.97288,184.48388 c 1.98004,-10.22225 10.91708,-17.61423 21.3314,-17.64248 z M 371.69576,345.15859 H 140.30428 c -11.96502,-0.0367 -21.65906,-9.72793 -21.69295,-21.69295 V 200.82703 l 133.84664,74.62318 c 1.08464,0.59599 2.30205,0.92082 3.54205,0.9406 1.24565,0.0141 2.4687,-0.31071 3.54205,-0.9406 l 133.84662,-74.62318 v 122.63861 c -0.009,11.97631 -9.71662,21.68166 -21.69293,21.69295 z m 0,0"
   style="fill:#ffd93b;fill-opacity:1;stroke-width:0.723097" /></svg>
