<?xml version="1.0" encoding="UTF-8" standalone="no"?>
<svg xmlns:dc="http://purl.org/dc/elements/1.1/"
   xmlns:cc="http://creativecommons.org/ns#"
   xmlns:rdf="http://www.w3.org/1999/02/22-rdf-syntax-ns#"
   xmlns:svg="http://www.w3.org/2000/svg"
   xmlns="http://www.w3.org/2000/svg"
   xmlns:sodipodi="http://sodipodi.sourceforge.net/DTD/sodipodi-0.dtd"
   xmlns:inkscape="http://www.inkscape.org/namespaces/inkscape" sodipodi:docname="imgutama.svg" inkscape:version="1.0 (4035a4fb49, 2020-05-01)" id="svg933" version="1.1" viewBox="0 0 93.8116 76.859817" height="76.859818mm" width="93.8116mm">
   <defs id="defs927" />
   <sodipodi:namedview inkscape:window-maximized="1" inkscape:window-y="-8" inkscape:window-x="-8" inkscape:window-height="705" inkscape:window-width="1366" fit-margin-bottom="0" fit-margin-right="0" fit-margin-left="0" fit-margin-top="0" showgrid="false" inkscape:document-rotation="0" inkscape:current-layer="layer1" inkscape:document-units="mm" inkscape:cy="140.14188" inkscape:cx="246.52459" inkscape:zoom="0.98994949" inkscape:pageshadow="2" inkscape:pageopacity="0.0" borderopacity="1.0" bordercolor="#666666" pagecolor="#ffffff" id="base" />
   <metadata id="metadata930">
      <rdf:RDF>
         <cc:Work rdf:about="">
            <dc:format>image/svg+xml</dc:format>
            <dc:type rdf:resource="http://purl.org/dc/dcmitype/StillImage" />
            <dc:title />
         </cc:Work>
      </rdf:RDF>
   </metadata>
   <g inkscape:label="Layer 1" inkscape:groupmode="layer" id="layer1" transform="translate(5.2572193,-66.423195)">
      <g transform="matrix(0.88981548,0,0,0.88981548,-1099.4421,125.43383)" style="font-style:normal;font-weight:normal;font-size:27.095px;line-height:1.25;font-family:sans-serif;fill:#f9f9f9;fill-opacity:1;stroke:none;stroke-width:0.677378" id="g276" aria-label="المأثورات">
         <path id="path252" style="font-style:normal;font-variant:normal;font-weight:normal;font-stretch:normal;font-family:Mothanna;-inkscape-font-specification:Mothanna;fill:#f9f9f9;fill-opacity:1;stroke-width:0.677378" d="m 1327.2663,-44.807956 q -0.026,0.502739 -0.1852,0.846719 -0.2911,0.714418 -1.1907,0.714418 -0.8997,0 -1.2436,-0.608579 -0.079,-0.132299 -0.1853,-0.661499 v -15.505536 q 0,-0.37044 0.1853,-0.767339 0.3704,-0.714419 1.2436,-0.714419 0.8467,0 1.2171,0.714419 0.053,0.10584 0.1588,0.767339 z" />
         <path id="path254" style="font-style:normal;font-variant:normal;font-weight:normal;font-stretch:normal;font-family:Mothanna;-inkscape-font-specification:Mothanna;fill:#f9f9f9;fill-opacity:1;stroke-width:0.677378" d="m 1321.3128,-46.236794 q 0,1.587598 -0.8996,2.328476 -0.8203,0.661499 -2.6196,0.661499 h -1.27 v -2.645996 h 1.0319 0.027 q 0.4762,-0.05292 0.6879,-0.291059 0.2382,-0.23814 0.2382,-0.740879 v -13.04476 q 0.079,-0.55566 0.1587,-0.714419 0.3705,-0.661499 1.2436,-0.661499 0.8468,0 1.2172,0.608579 0.1058,0.370439 0.1852,0.767339 z" />
         <path id="path256" style="font-style:normal;font-variant:normal;font-weight:normal;font-stretch:normal;font-family:Mothanna;-inkscape-font-specification:Mothanna;fill:#f9f9f9;fill-opacity:1;stroke-width:0.677378" d="m 1311.7343,-45.998654 c -0.4233,-0.405719 -0.9084,-0.608579 -1.4553,-0.608579 -0.5821,0 -1.0672,0.20286 -1.4553,0.608579 -0.3881,0.405719 -0.5821,0.873178 -0.5821,1.402377 0,0.564479 0.194,1.040759 0.5821,1.428838 0.4057,0.405719 0.8908,0.608579 1.4553,0.608579 0.5469,0 1.0231,-0.19404 1.4288,-0.582119 0.4057,-0.370439 0.6086,-0.855539 0.6086,-1.455298 0,-0.529199 -0.194,-0.996658 -0.5821,-1.402377 z m 5.8247,2.751835 h -2.8876 c -0.017,0.03528 -0.035,0.09702 -0.053,0.18522 -0.1587,0.458639 -0.2822,0.767339 -0.3704,0.926099 -0.088,0.158759 -0.2558,0.379259 -0.5027,0.661499 -0.2999,0.335159 -0.7586,0.670319 -1.376,1.005478 -0.5645,0.29988 -1.3406,0.44982 -2.3284,0.44982 -1.2701,0 -2.3197,-0.485099 -3.1488,-1.455298 -0.1058,-0.12348 -0.2028,-0.24696 -0.291,-0.37044 -0.088,-0.123479 -0.1588,-0.229319 -0.2117,-0.317519 -0.053,-0.07056 -0.1144,-0.1764 -0.1852,-0.31752 -0.053,-0.123479 -0.088,-0.202859 -0.1059,-0.238139 -0.017,-0.03528 -0.061,-0.1323 -0.1323,-0.29106 -0.053,-0.14112 -0.079,-0.2205 -0.079,-0.23814 h -2.7549 v -2.645996 h 2.7549 c 0.1587,-0.388079 0.2646,-0.635039 0.3175,-0.740878 0.053,-0.12348 0.132,-0.27342 0.2381,-0.44982 0.1235,-0.176399 0.2734,-0.370439 0.4498,-0.582119 0.088,-0.14112 0.2823,-0.33516 0.5822,-0.582119 0.7585,-0.652679 1.6934,-0.979019 2.8047,-0.979019 0.8467,0 1.5523,0.15876 2.1168,0.47628 0.5821,0.335159 1.0231,0.679139 1.323,1.031938 0.088,0.10584 0.1676,0.2205 0.2381,0.34398 0.088,0.105839 0.1676,0.238139 0.2382,0.396899 0.071,0.14112 0.1234,0.25578 0.1587,0.34398 0.035,0.07056 0.088,0.202859 0.1588,0.396899 0.088,0.1764 0.1411,0.29106 0.1588,0.343979 h 2.8876 z" sodipodi:nodetypes="cssscscsccccsccscsccccccccccccsccccccccc" />
         <path id="path258" style="font-style:normal;font-variant:normal;font-weight:normal;font-stretch:normal;font-family:Mothanna;-inkscape-font-specification:Mothanna;fill:#f9f9f9;fill-opacity:1;stroke-width:0.677378" d="m 1304.0345,-43.246819 h -2.8577 q -0.7674,0 -1.323,-0.158759 -0.5292,-0.18522 -0.8203,-0.42336 -0.2646,-0.238139 -0.4233,-0.687959 -0.1588,-0.449819 -0.1853,-0.820258 -0.026,-0.37044 -0.026,-0.952559 v -6.95897 q 0,-0.767338 0.3969,-1.270078 0.3704,-0.449819 1.0848,-0.449819 0.6615,0 1.0055,0.555659 0.2911,0.44982 0.2911,1.296538 v 6.112251 q 0,0.07938 0,0.21168 0,0.1323 0,0.15876 0,0.343979 0.1323,0.529199 0.1587,0.15876 0.635,0.211679 h 2.0904 z" />
         <path id="path260" style="font-style:normal;font-variant:normal;font-weight:normal;font-stretch:normal;font-family:Mothanna;-inkscape-font-specification:Mothanna;fill:#f9f9f9;fill-opacity:1;stroke-width:0.677378" d="m 1302.7115,-56.847238 q 0,0.793799 -0.8203,0.793799 h -4.0219 q -0.3969,-0.02646 -0.5821,-0.05292 -0.1853,-0.02646 -0.3705,-0.21168 -0.1852,-0.185219 -0.1852,-0.555659 0,-0.740879 1.0584,-0.793799 0.053,0 0.079,0 l -0.2382,-0.449819 q -0.1323,-0.396899 -0.1323,-0.793799 0,-1.349458 1.1114,-2.169717 0.5556,-0.396899 1.4288,-0.423359 0.053,-0.02646 0.1058,-0.02646 1.7199,0 2.4079,1.799277 0,0.873179 -0.7144,0.873179 -0.3175,0 -0.5557,-0.18522 -0.1058,-0.132299 -0.2646,-0.370439 -0.1323,-0.23814 -0.2117,-0.31752 -0.053,-0.105839 -0.2646,-0.185219 -0.1852,-0.07938 -0.4762,-0.07938 -0.5557,0 -0.8203,0.343979 -0.2646,0.34398 -0.2646,0.820259 0,0.423359 0.2117,0.687959 0.1058,0.15876 0.2646,0.2646 0.1323,0.105839 0.2381,0.132299 0.079,0.02646 0.1852,0.05292 0.1323,0.02646 0.1588,0.02646 h 1.8522 q 0.8203,0 0.8203,0.820259 z" />
         <path id="path262" style="font-style:normal;font-variant:normal;font-weight:normal;font-stretch:normal;font-family:Mothanna;-inkscape-font-specification:Mothanna;fill:#f9f9f9;fill-opacity:1;stroke-width:0.677378" d="m 1293.1065,-45.257776 q 0,0.07938 -0.027,0.23814 0,0.1323 -0.1323,0.476279 -0.1058,0.31752 -0.3175,0.608579 -0.1852,0.2646 -0.6086,0.47628 -0.3969,0.211679 -0.9525,0.211679 h -4.2336 v -2.645996 h 2.4343 q 1.1907,0 1.1907,-1.137778 v -4.048374 q 0.079,-0.529199 0.1588,-0.687959 0.3704,-0.687959 1.1642,-0.687959 0.7938,0 1.1378,0.687959 0.1058,0.23814 0.1852,0.687959 z" />
         <path id="path264" style="font-style:normal;font-variant:normal;font-weight:normal;font-stretch:normal;font-family:Mothanna;-inkscape-font-specification:Mothanna;fill:#f9f9f9;fill-opacity:1;stroke-width:0.677378" d="m 1293.0271,-59.784293 q 0,0.529199 -0.4498,1.031938 -0.3969,0.423359 -1.0055,0.423359 -0.6086,0 -1.0055,-0.423359 -0.4498,-0.423359 -0.4498,-1.031938 0,-0.55566 0.4234,-0.979019 0.5027,-0.476279 1.0319,-0.476279 0.5292,0 0.979,0.476279 0.4763,0.449819 0.4763,0.979019 z m 2.302,3.968994 q 0,0.555659 -0.4233,1.005478 -0.4234,0.449819 -1.0055,0.449819 -0.6615,0 -1.032,-0.396899 -0.4233,-0.449819 -0.4233,-1.058398 0,-0.5292 0.4233,-1.005479 0.3969,-0.449819 1.032,-0.449819 0.6086,0 1.0055,0.396899 0.4233,0.44982 0.4233,1.058399 z m -4.5511,0 q 0,0.608579 -0.3969,1.005478 -0.4763,0.449819 -1.0319,0.449819 -0.6086,0 -1.0055,-0.423359 -0.4498,-0.423359 -0.4498,-1.031938 0,-0.5292 0.4233,-1.005479 0.3969,-0.449819 1.032,-0.449819 0.6086,0 1.0319,0.423359 0.3969,0.3969 0.3969,1.031939 z" />
         <path id="path266" style="font-style:normal;font-variant:normal;font-weight:normal;font-stretch:normal;font-family:Mothanna;-inkscape-font-specification:Mothanna;fill:#f9f9f9;fill-opacity:1;stroke-width:0.677378" d="m 1288.2921,-45.892815 v 2.645996 h -5.1875 c -1.3935,2.469597 -2.205,3.871975 -2.4343,4.207134 -0.1941,0.28224 -0.4057,0.441 -0.635,0.476279 -0.1411,0.03528 -0.2558,0.05292 -0.344,0.05292 -0.1764,0 -0.3616,-0.05292 -0.5557,-0.158759 -0.3351,-0.1764 -0.5292,-0.40572 -0.5821,-0.687959 -0.053,-0.2646 -0.017,-0.53802 0.1058,-0.820259 0.088,-0.22932 0.6703,-1.252439 1.7464,-3.069356 -1.3053,0 -2.3461,-0.352799 -3.1223,-1.058398 -0.5468,-0.511559 -0.926,-1.093678 -1.1377,-1.746357 -0.2117,-0.652679 -0.3176,-1.225979 -0.3176,-1.719898 0.071,-1.534677 0.6616,-2.743015 1.7729,-3.625014 0.8467,-0.670319 1.808,-1.005479 2.8841,-1.005479 1.1995,0 2.2756,0.458639 3.2281,1.375918 0.9349,0.917279 1.4024,1.984497 1.4024,3.201655 0,0.493919 -0.097,0.952559 -0.2911,1.375918 l -0.2381,0.555659 z m -7.9129,0.1323 c 0.5116,0 0.9791,-0.18522 1.4024,-0.555659 0.4234,-0.370439 0.6351,-0.855539 0.6351,-1.455298 0,-0.564479 -0.2029,-1.040758 -0.6086,-1.428838 -0.3881,-0.405719 -0.8644,-0.608579 -1.4289,-0.608579 -0.5468,0 -1.0319,0.19404 -1.4553,0.582119 -0.4057,0.38808 -0.6085,0.873179 -0.6085,1.455298 0,0.529199 0.2028,0.996659 0.6085,1.402378 0.441,0.405719 0.9261,0.608579 1.4553,0.608579 z" sodipodi:nodetypes="cccccsccccccccscscccscscscscs" />
         <path id="path268" style="font-style:normal;font-variant:normal;font-weight:normal;font-stretch:normal;font-family:Mothanna;-inkscape-font-specification:Mothanna;fill:#f9f9f9;fill-opacity:1;stroke-width:0.677378" d="m 1271.3035,-52.745944 q 0.3969,0 0.6615,0.1323 0.2646,0.105839 0.3969,0.396899 0.1587,0.291059 0.1852,0.476279 0.053,0.18522 0.1323,0.582119 v 9.631426 q 0,0.767339 -0.1323,1.349458 -0.1058,0.608579 -0.3175,0.926098 -0.2117,0.31752 -0.3705,0.47628 -0.1587,0.185219 -0.3704,0.291059 l -0.2117,0.10584 q -0.4498,0.1323 -0.6615,0.1323 -0.079,0 -0.3704,0 -0.1059,0 -0.2382,0 -0.1058,0 -0.1323,0 -0.079,0 -0.1323,0 -1.7463,0 -1.7463,-1.296538 0,-0.661499 0.291,-0.979019 0.3176,-0.317519 0.6615,-0.343979 0.3705,-0.02646 0.6615,-0.21168 0.2911,-0.15876 0.2911,-0.555659 0,-0.05292 0,-0.15876 0,-0.07938 0,-0.10584 l -0.026,-9.260986 v -0.02646 q 0,-0.608579 0.3176,-1.084858 0.3175,-0.476279 1.0848,-0.476279 z" />
         <path id="path270" style="font-style:normal;font-variant:normal;font-weight:normal;font-stretch:normal;font-family:Mothanna;-inkscape-font-specification:Mothanna;fill:#f9f9f9;fill-opacity:1;stroke-width:0.677378" d="m 1264.8208,-44.807956 q -0.026,0.502739 -0.1852,0.846719 -0.2911,0.714418 -1.1907,0.714418 -0.8997,0 -1.2436,-0.608579 -0.079,-0.132299 -0.1853,-0.661499 v -15.505536 q 0,-0.37044 0.1853,-0.767339 0.3704,-0.714419 1.2436,-0.714419 0.8467,0 1.2171,0.714419 0.053,0.10584 0.1588,0.767339 z" />
         <path id="path272" style="font-style:normal;font-variant:normal;font-weight:normal;font-stretch:normal;font-family:Mothanna;-inkscape-font-specification:Mothanna;fill:#f9f9f9;fill-opacity:1;stroke-width:0.677378" d="m 1258.1793,-43.828938 q -0.2116,0.21168 -0.5556,0.37044 -0.3175,0.15876 -0.4763,0.185219 -0.1588,0.02646 -0.2117,0.02646 h -14.8176 q -0.8467,0 -1.7992,-0.343979 -0.9526,-0.34398 -1.6141,-1.031938 -1.1907,-1.164239 -1.1907,-3.228116 0,-2.010957 1.1907,-3.254575 0.635,-0.661499 1.667,-1.005478 1.0584,-0.34398 1.7463,-0.34398 h 7.4882 q 0.5557,0.07938 0.7144,0.15876 0.6615,0.34398 0.6615,1.164238 0,0.820259 -0.635,1.164239 -0.1588,0.07938 -0.7409,0.158759 h -7.3559 q -0.2116,0 -0.5027,0.07938 -0.2911,0.05292 -0.7409,0.23814 -0.4233,0.15876 -0.7144,0.635039 -0.2911,0.449819 -0.2911,1.111318 0,0.608579 0.2911,1.031939 0.2911,0.396899 0.7144,0.582119 0.4498,0.15876 0.7409,0.211679 0.3175,0.05292 0.5027,0.05292 h 12.7273 q 1.2171,0 1.2171,-1.111318 v -4.101294 q 0.053,-0.396899 0.1853,-0.687959 0.3175,-0.687959 1.1377,-0.687959 0.8203,0 1.1643,0.687959 0.1323,0.2646 0.1587,0.687959 v 5.900571 q 0,0.635039 -0.6615,1.349458 z" />
         <path id="path274" style="font-style:normal;font-variant:normal;font-weight:normal;font-stretch:normal;font-family:Mothanna;-inkscape-font-specification:Mothanna;fill:#f9f9f9;fill-opacity:1;stroke-width:0.677378" d="m 1255.0835,-59.757834 q 0,0.502739 -0.4498,0.979019 -0.4234,0.423359 -0.979,0.423359 0,0 -0.026,0 -0.026,0 -0.026,0 -0.5557,0 -0.9261,-0.3969 -0.4234,-0.396899 -0.4234,-1.005478 0,-0.582119 0.4234,-1.031938 0.3969,-0.42336 0.979,-0.42336 0.5821,0 1.0055,0.449819 0.4233,0.3969 0.4233,1.005479 z m 0,4.498193 q 0,0.502739 -0.4498,0.979019 -0.4498,0.449819 -0.979,0.449819 -0.5557,0 -0.979,-0.449819 -0.4234,-0.3969 -0.4234,-0.979019 0,-0.582119 0.4234,-1.031938 0.3704,-0.3969 0.979,-0.3969 0.6086,0 1.0055,0.3969 0.4233,0.449819 0.4233,1.031938 z" />
      </g>
      <g transform="matrix(1.2847276,0,0,1.2847276,-28.600863,-10.494722)" aria-label="Al-MA'TSURAT" id="text280" style="font-style:normal;font-weight:normal;font-size:8.61177px;line-height:1.25;font-family:sans-serif;fill:#f9f9f9;fill-opacity:1;stroke:none;stroke-width:0.215295">
         <path d="m 27.190888,83.712578 h 1.050636 l 2.325177,6.114357 H 29.34383 l -0.568377,-1.524283 h -2.135719 l -0.559765,1.524283 h -1.222871 z m 1.369271,3.754732 -0.843953,-2.402684 -0.878401,2.402684 z" style="font-style:normal;font-variant:normal;font-weight:bold;font-stretch:normal;font-family:Raleway;-inkscape-font-specification:'Raleway Bold';fill:#f9f9f9;fill-opacity:1;stroke-width:0.215295" id="path26" />
         <path d="m 31.116778,83.540343 h 1.153977 v 4.839815 q 0,0.249741 0.120565,0.387529 0.120565,0.137788 0.344471,0.137788 0.103341,0 0.223906,-0.03445 0.129176,-0.03445 0.241129,-0.08612 l 0.155012,0.8784 q -0.232518,0.111953 -0.542541,0.172236 -0.310024,0.06028 -0.559765,0.06028 -0.542542,0 -0.843954,-0.284188 -0.2928,-0.292801 -0.2928,-0.82673 z" style="font-style:normal;font-variant:normal;font-weight:bold;font-stretch:normal;font-family:Raleway;-inkscape-font-specification:'Raleway Bold';fill:#f9f9f9;fill-opacity:1;stroke-width:0.215295" id="path28" />
         <path d="m 33.656173,87.984016 v -1.042024 h 2.609366 v 1.042024 z" style="font-style:normal;font-variant:normal;font-weight:bold;font-stretch:normal;font-family:Raleway;-inkscape-font-specification:'Raleway Bold';fill:#f9f9f9;fill-opacity:1;stroke-width:0.215295" id="path30" />
         <path d="m 42.379627,89.826935 v -4.047532 l -1.575954,3.014119 h -0.645882 l -1.575954,-3.014119 v 4.047532 h -1.188424 v -6.114357 h 1.274542 l 1.808471,3.479155 1.825695,-3.479155 h 1.26593 v 6.114357 z" style="font-style:normal;font-variant:normal;font-weight:bold;font-stretch:normal;font-family:Raleway;-inkscape-font-specification:'Raleway Bold';fill:#f9f9f9;fill-opacity:1;stroke-width:0.215295" id="path32" />
         <path d="m 46.584189,83.712578 h 1.050636 l 2.325177,6.114357 h -1.222871 l -0.568377,-1.524283 h -2.135719 l -0.559765,1.524283 h -1.222871 z m 1.369271,3.754732 -0.843953,-2.402684 -0.878401,2.402684 z" style="font-style:normal;font-variant:normal;font-weight:bold;font-stretch:normal;font-family:Raleway;-inkscape-font-specification:'Raleway Bold';fill:#f9f9f9;fill-opacity:1;stroke-width:0.215295" id="path34" />
         <path d="m 49.929996,85.529662 v -1.929037 h 0.981742 v 1.929037 z" style="font-style:normal;font-variant:normal;font-weight:bold;font-stretch:normal;font-family:Raleway;-inkscape-font-specification:'Raleway Bold';fill:#f9f9f9;fill-opacity:1;stroke-width:0.215295" id="path36" />
         <path d="M 56.633182,84.754602 H 54.67831 v 5.072333 h -1.179812 v -5.072333 h -1.954872 v -1.042024 h 5.089556 z" style="font-style:normal;font-variant:normal;font-weight:bold;font-stretch:normal;font-family:Raleway;-inkscape-font-specification:'Raleway Bold';fill:#f9f9f9;fill-opacity:1;stroke-width:0.215295" id="path38" />
         <path d="m 61.035007,85.314368 q -0.06028,-0.06028 -0.223906,-0.163624 -0.155012,-0.103341 -0.38753,-0.198071 -0.223906,-0.103341 -0.490871,-0.172235 -0.266965,-0.06889 -0.542541,-0.06889 -0.490871,0 -0.732001,0.180847 -0.241129,0.180847 -0.241129,0.508094 0,0.189459 0.08612,0.318636 0.09473,0.120564 0.266965,0.215294 0.172236,0.09473 0.430589,0.172235 0.266965,0.07751 0.611435,0.163624 0.447812,0.120565 0.809507,0.258353 0.370306,0.137788 0.620047,0.344471 0.258353,0.206682 0.396142,0.499482 0.137788,0.284189 0.137788,0.706166 0,0.49087 -0.189459,0.843953 -0.180847,0.344471 -0.499483,0.559765 -0.310023,0.215294 -0.723388,0.318636 -0.404753,0.09473 -0.852566,0.09473 -0.688941,0 -1.360659,-0.206683 -0.671718,-0.206682 -1.205648,-0.5856 l 0.525318,-1.0248 q 0.07751,0.07751 0.275577,0.206682 0.206682,0.120565 0.482259,0.249741 0.275576,0.120565 0.611435,0.206683 0.335859,0.08612 0.688942,0.08612 0.981742,0 0.981742,-0.62866 0,-0.19807 -0.111953,-0.335859 -0.111953,-0.137788 -0.318636,-0.241129 -0.206682,-0.103341 -0.499482,-0.189459 -0.292801,-0.08612 -0.654495,-0.189459 -0.4392,-0.120565 -0.766447,-0.258353 -0.318636,-0.1464 -0.53393,-0.335859 -0.215294,-0.198071 -0.327247,-0.447812 -0.103342,-0.258353 -0.103342,-0.611436 0,-0.465035 0.172236,-0.82673 0.172235,-0.361694 0.473647,-0.602824 0.310024,-0.241129 0.714777,-0.361694 0.404753,-0.129177 0.869789,-0.129177 0.645883,0 1.188424,0.206683 0.542542,0.198071 0.947295,0.473647 z" style="font-style:normal;font-variant:normal;font-weight:bold;font-stretch:normal;font-family:Raleway;-inkscape-font-specification:'Raleway Bold';fill:#f9f9f9;fill-opacity:1;stroke-width:0.215295" id="path40" />
         <path d="m 65.257196,88.819358 q 0.421977,0 0.706165,-0.172236 0.2928,-0.172235 0.465036,-0.447812 0.180847,-0.275576 0.249741,-0.628659 0.07751,-0.361694 0.07751,-0.740612 v -3.117461 h 1.179812 v 3.117461 q 0,0.628659 -0.155012,1.179812 -0.1464,0.551154 -0.473647,0.964519 -0.318635,0.413365 -0.82673,0.654494 -0.508094,0.24113 -1.214259,0.24113 -0.732001,0 -1.248707,-0.249742 -0.508094,-0.258353 -0.82673,-0.671718 -0.318635,-0.421976 -0.465035,-0.97313 -0.137789,-0.551153 -0.137789,-1.145365 v -3.117461 h 1.188425 v 3.117461 q 0,0.38753 0.06889,0.749224 0.07751,0.353082 0.249741,0.628659 0.180847,0.275577 0.465036,0.447812 0.284188,0.163624 0.697553,0.163624 z" style="font-style:normal;font-variant:normal;font-weight:bold;font-stretch:normal;font-family:Raleway;-inkscape-font-specification:'Raleway Bold';fill:#f9f9f9;fill-opacity:1;stroke-width:0.215295" id="path42" />
         <path d="m 69.132493,89.826935 v -6.114357 h 2.704096 q 0.421976,0 0.775059,0.180848 0.361694,0.172235 0.620047,0.465035 0.258354,0.284188 0.404754,0.654495 0.1464,0.361694 0.1464,0.732 0,0.594212 -0.301412,1.085083 -0.2928,0.482259 -0.800895,0.697553 l 1.395107,2.299343 h -1.334824 l -1.248707,-2.049601 h -1.171201 v 2.049601 z m 1.188424,-3.091625 h 1.489836 q 0.163624,0 0.301412,-0.07751 0.1464,-0.07751 0.249742,-0.206683 0.103341,-0.137788 0.163623,-0.318635 0.06028,-0.180848 0.06028,-0.38753 0,-0.215294 -0.06889,-0.396141 -0.06889,-0.180848 -0.189459,-0.310024 -0.111953,-0.137788 -0.266965,-0.206683 -0.1464,-0.07751 -0.301412,-0.07751 h -1.438166 z" style="font-style:normal;font-variant:normal;font-weight:bold;font-stretch:normal;font-family:Raleway;-inkscape-font-specification:'Raleway Bold';fill:#f9f9f9;fill-opacity:1;stroke-width:0.215295" id="path44" />
         <path d="m 76.489907,83.712578 h 1.050635 l 2.325178,6.114357 h -1.222871 l -0.568377,-1.524283 h -2.135719 l -0.559765,1.524283 h -1.222871 z m 1.369271,3.754732 -0.843954,-2.402684 -0.8784,2.402684 z" style="font-style:normal;font-variant:normal;font-weight:bold;font-stretch:normal;font-family:Raleway;-inkscape-font-specification:'Raleway Bold';fill:#f9f9f9;fill-opacity:1;stroke-width:0.215295" id="path46" />
         <path d="m 84.503694,84.754602 h -1.954872 v 5.072333 H 81.36901 v -5.072333 h -1.954872 v -1.042024 h 5.089556 z" style="font-style:normal;font-variant:normal;font-weight:bold;font-stretch:normal;font-family:Raleway;-inkscape-font-specification:'Raleway Bold';fill:#f9f9f9;fill-opacity:1;stroke-width:0.215295" id="path48" />
      </g>
      <g transform="matrix(1.2847276,0,0,1.2847276,-28.670723,-0.44055437)" aria-label="Do'a Dzikir Pagi dan Petang" id="text286" style="font-style:normal;font-weight:normal;font-size:6.3503px;line-height:1.25;font-family:sans-serif;fill:#f9f9f9;fill-opacity:1;stroke:none;stroke-width:0.158757">
         <path d="m 32.926406,99.116417 v -4.508713 h 1.530422 q 0.539775,0 0.939844,0.177808 0.406419,0.177809 0.673132,0.482623 0.273063,0.304815 0.406419,0.717584 0.139707,0.406419 0.139707,0.869991 0,0.514374 -0.152407,0.933494 -0.152408,0.41277 -0.438171,0.711234 -0.279413,0.292114 -0.679482,0.457221 -0.393719,0.158758 -0.889042,0.158758 z m 3.245003,-2.260707 q 0,-0.406419 -0.114306,-0.742985 -0.114305,-0.342916 -0.336565,-0.590578 -0.215911,-0.247661 -0.533426,-0.381018 -0.317515,-0.139706 -0.730284,-0.139706 h -1.085901 v 3.721275 h 1.085901 q 0.41912,0 0.736635,-0.139706 0.323865,-0.146057 0.539775,-0.393719 0.21591,-0.254012 0.323865,-0.590578 0.114306,-0.342916 0.114306,-0.742985 z" style="font-style:normal;font-variant:normal;font-weight:normal;font-stretch:normal;font-family:Raleway;-inkscape-font-specification:Raleway;text-align:center;text-anchor:middle;fill:#f9f9f9;fill-opacity:1;stroke-width:0.158757" id="path51" />
         <path d="m 38.78674,99.17992 q -0.361967,0 -0.660431,-0.133356 -0.298464,-0.139707 -0.520725,-0.374668 -0.21591,-0.234961 -0.336566,-0.546126 -0.120655,-0.311165 -0.120655,-0.654081 0,-0.349266 0.120655,-0.660431 0.127006,-0.311165 0.342917,-0.546126 0.22226,-0.234961 0.520724,-0.374667 0.298464,-0.139707 0.654081,-0.139707 0.355617,0 0.654081,0.139707 0.304814,0.139706 0.520725,0.374667 0.22226,0.234961 0.342916,0.546126 0.127006,0.311165 0.127006,0.660431 0,0.342916 -0.120656,0.654081 -0.120656,0.311165 -0.342916,0.546126 -0.21591,0.234961 -0.520725,0.374668 -0.298464,0.133356 -0.660431,0.133356 z m -1.200207,-1.70188 q 0,0.279413 0.09525,0.520724 0.09525,0.234961 0.254012,0.41912 0.165108,0.177808 0.381018,0.279413 0.22226,0.101605 0.469922,0.101605 0.247662,0 0.463572,-0.101605 0.22226,-0.107955 0.387368,-0.285763 0.165108,-0.184159 0.260363,-0.42547 0.09525,-0.241312 0.09525,-0.520725 0,-0.273063 -0.09525,-0.514374 -0.09526,-0.247662 -0.260363,-0.42547 -0.165108,-0.184159 -0.387368,-0.285764 -0.21591,-0.107955 -0.463572,-0.107955 -0.247662,0 -0.463572,0.107955 -0.21591,0.101605 -0.381018,0.285764 -0.165108,0.184158 -0.260362,0.43182 -0.09525,0.241311 -0.09525,0.520725 z" style="font-style:normal;font-variant:normal;font-weight:normal;font-stretch:normal;font-family:Raleway;-inkscape-font-specification:Raleway;text-align:center;text-anchor:middle;fill:#f9f9f9;fill-opacity:1;stroke-width:0.158757" id="path53" />
         <path d="m 41.010139,95.807911 v -1.238309 h 0.374667 v 1.238309 z" style="font-style:normal;font-variant:normal;font-weight:normal;font-stretch:normal;font-family:Raleway;-inkscape-font-specification:Raleway;text-align:center;text-anchor:middle;fill:#f9f9f9;fill-opacity:1;stroke-width:0.158757" id="path55" />
         <path d="m 43.058408,99.17992 q -0.234961,0 -0.438171,-0.0762 -0.196859,-0.08255 -0.349266,-0.22226 -0.146057,-0.139707 -0.228611,-0.323865 -0.08255,-0.190509 -0.08255,-0.40642 0,-0.21591 0.101605,-0.400069 0.101605,-0.184158 0.285763,-0.317515 0.184159,-0.133356 0.438171,-0.203209 0.254012,-0.0762 0.558826,-0.0762 0.254012,0 0.514375,0.04445 0.260362,0.04445 0.463571,0.127006 v -0.298464 q 0,-0.43817 -0.247661,-0.692182 -0.247662,-0.260363 -0.685833,-0.260363 -0.254012,0 -0.520724,0.101605 -0.266713,0.101605 -0.539776,0.292114 L 42.17572,96.182584 q 0.64138,-0.43182 1.244659,-0.43182 0.622329,0 0.977946,0.349267 0.355617,0.349266 0.355617,0.965245 v 1.492321 q 0,0.177808 0.158757,0.177808 v 0.381018 q -0.107955,0.01905 -0.165107,0.01905 -0.165108,0 -0.260363,-0.08255 -0.0889,-0.08255 -0.09525,-0.228611 l -0.0127,-0.260362 q -0.228611,0.298464 -0.577877,0.457221 -0.342916,0.158758 -0.742985,0.158758 z m 0.101605,-0.330216 q 0.336565,0 0.615979,-0.127006 0.285763,-0.127006 0.43182,-0.336566 0.05715,-0.05715 0.08255,-0.120655 0.03175,-0.06985 0.03175,-0.127006 v -0.539776 q -0.21591,-0.08255 -0.450871,-0.127006 -0.228611,-0.04445 -0.469922,-0.04445 -0.457222,0 -0.742985,0.190509 -0.285764,0.190509 -0.285764,0.501674 0,0.152407 0.05715,0.285763 0.0635,0.133357 0.165108,0.234961 0.107955,0.09525 0.254012,0.152408 0.146057,0.05715 0.311165,0.05715 z" style="font-style:normal;font-variant:normal;font-weight:normal;font-stretch:normal;font-family:Raleway;-inkscape-font-specification:Raleway;text-align:center;text-anchor:middle;fill:#f9f9f9;fill-opacity:1;stroke-width:0.158757" id="path57" />
         <path d="m 47.400624,99.116417 v -4.508713 h 1.530422 q 0.539776,0 0.939845,0.177808 0.406419,0.177809 0.673131,0.482623 0.273063,0.304815 0.40642,0.717584 0.139706,0.406419 0.139706,0.869991 0,0.514374 -0.152407,0.933494 -0.152407,0.41277 -0.438171,0.711234 -0.279413,0.292114 -0.679482,0.457221 -0.393718,0.158758 -0.889042,0.158758 z m 3.245003,-2.260707 q 0,-0.406419 -0.114305,-0.742985 -0.114306,-0.342916 -0.336566,-0.590578 -0.21591,-0.247661 -0.533425,-0.381018 -0.317515,-0.139706 -0.730285,-0.139706 h -1.085901 v 3.721275 h 1.085901 q 0.41912,0 0.736635,-0.139706 0.323865,-0.146057 0.539776,-0.393719 0.21591,-0.254012 0.323865,-0.590578 0.114305,-0.342916 0.114305,-0.742985 z" style="font-style:normal;font-variant:normal;font-weight:normal;font-stretch:normal;font-family:Raleway;-inkscape-font-specification:Raleway;text-align:center;text-anchor:middle;fill:#f9f9f9;fill-opacity:1;stroke-width:0.158757" id="path59" />
         <path d="m 51.571779,98.824303 2.235306,-2.692527 h -2.184503 v -0.323865 h 2.654425 v 0.292114 l -2.228955,2.692527 h 2.222605 v 0.323865 h -2.698878 z" style="font-style:normal;font-variant:normal;font-weight:normal;font-stretch:normal;font-family:Raleway;-inkscape-font-specification:Raleway;text-align:center;text-anchor:middle;fill:#f9f9f9;fill-opacity:1;stroke-width:0.158757" id="path61" />
         <path d="m 54.97673,99.116417 v -3.308506 h 0.431821 v 3.308506 z m 0,-4.000689 v -0.63503 h 0.431821 v 0.63503 z" style="font-style:normal;font-variant:normal;font-weight:normal;font-stretch:normal;font-family:Raleway;-inkscape-font-specification:Raleway;text-align:center;text-anchor:middle;fill:#f9f9f9;fill-opacity:1;stroke-width:0.158757" id="path63" />
         <path d="m 58.72817,99.116417 -1.219258,-1.69553 -0.711234,0.660431 v 1.035099 h -0.43182 v -4.635719 h 0.43182 v 3.149749 l 1.860638,-1.816186 h 0.488973 l -1.352614,1.352614 1.403417,1.949542 z" style="font-style:normal;font-variant:normal;font-weight:normal;font-stretch:normal;font-family:Raleway;-inkscape-font-specification:Raleway;text-align:center;text-anchor:middle;fill:#f9f9f9;fill-opacity:1;stroke-width:0.158757" id="path65" />
         <path d="m 59.727053,99.116417 v -3.308506 h 0.43182 v 3.308506 z m 0,-4.000689 v -0.63503 h 0.43182 v 0.63503 z" style="font-style:normal;font-variant:normal;font-weight:normal;font-stretch:normal;font-family:Raleway;-inkscape-font-specification:Raleway;text-align:center;text-anchor:middle;fill:#f9f9f9;fill-opacity:1;stroke-width:0.158757" id="path67" />
         <path d="m 62.767258,96.188929 q -0.43817,0.0127 -0.762036,0.241311 -0.323865,0.228611 -0.457221,0.62868 v 2.057497 H 61.11618 v -3.308506 h 0.406419 v 0.793787 q 0.184159,-0.381018 0.495324,-0.596928 0.311165,-0.21591 0.666781,-0.21591 0.0508,0 0.08255,0.0063 z" style="font-style:normal;font-variant:normal;font-weight:normal;font-stretch:normal;font-family:Raleway;-inkscape-font-specification:Raleway;text-align:center;text-anchor:middle;fill:#f9f9f9;fill-opacity:1;stroke-width:0.158757" id="path69" />
         <path d="m 64.91356,99.116417 v -4.508713 h 1.866988 q 0.292114,0 0.533425,0.127006 0.247662,0.120656 0.42547,0.323865 0.177808,0.19686 0.279413,0.450872 0.101605,0.254012 0.101605,0.514374 0,0.279413 -0.09525,0.539775 -0.09525,0.254012 -0.266713,0.450872 -0.171458,0.196859 -0.41277,0.317515 -0.234961,0.120655 -0.527074,0.120655 h -1.460569 v 1.663779 z m 0.444521,-2.057497 h 1.441518 q 0.196859,0 0.355616,-0.08255 0.165108,-0.0889 0.279414,-0.228611 0.114305,-0.146057 0.177808,-0.330215 0.0635,-0.190509 0.0635,-0.393719 0,-0.20956 -0.0762,-0.393719 -0.06985,-0.190509 -0.196859,-0.330215 -0.120656,-0.139707 -0.292114,-0.21591 -0.165107,-0.08255 -0.349266,-0.08255 h -1.403416 z" style="font-style:normal;font-variant:normal;font-weight:normal;font-stretch:normal;font-family:Raleway;-inkscape-font-specification:Raleway;text-align:center;text-anchor:middle;fill:#f9f9f9;fill-opacity:1;stroke-width:0.158757" id="path71" />
         <path d="m 69.563468,99.17992 q -0.234961,0 -0.438171,-0.0762 -0.196859,-0.08255 -0.349266,-0.22226 -0.146057,-0.139707 -0.228611,-0.323865 -0.08255,-0.190509 -0.08255,-0.40642 0,-0.21591 0.101605,-0.400069 0.101605,-0.184158 0.285763,-0.317515 0.184159,-0.133356 0.438171,-0.203209 0.254012,-0.0762 0.558826,-0.0762 0.254012,0 0.514375,0.04445 0.260362,0.04445 0.463572,0.127006 v -0.298464 q 0,-0.43817 -0.247662,-0.692182 -0.247662,-0.260363 -0.685832,-0.260363 -0.254012,0 -0.520725,0.101605 -0.266713,0.101605 -0.539775,0.292114 L 68.68078,96.182584 q 0.641381,-0.43182 1.244659,-0.43182 0.622329,0 0.977946,0.349267 0.355617,0.349266 0.355617,0.965245 v 1.492321 q 0,0.177808 0.158758,0.177808 v 0.381018 q -0.107956,0.01905 -0.165108,0.01905 -0.165108,0 -0.260363,-0.08255 -0.0889,-0.08255 -0.09525,-0.228611 l -0.0127,-0.260362 q -0.22861,0.298464 -0.577877,0.457221 -0.342916,0.158758 -0.742985,0.158758 z m 0.101605,-0.330216 q 0.336566,0 0.615979,-0.127006 0.285763,-0.127006 0.43182,-0.336566 0.05715,-0.05715 0.08255,-0.120655 0.03175,-0.06985 0.03175,-0.127006 v -0.539776 q -0.215911,-0.08255 -0.450872,-0.127006 -0.22861,-0.04445 -0.469922,-0.04445 -0.457221,0 -0.742985,0.190509 -0.285763,0.190509 -0.285763,0.501674 0,0.152407 0.05715,0.285763 0.0635,0.133357 0.165108,0.234961 0.107955,0.09525 0.254012,0.152408 0.146057,0.05715 0.311165,0.05715 z" style="font-style:normal;font-variant:normal;font-weight:normal;font-stretch:normal;font-family:Raleway;-inkscape-font-specification:Raleway;text-align:center;text-anchor:middle;fill:#f9f9f9;fill-opacity:1;stroke-width:0.158757" id="path73" />
         <path d="m 73.51921,99.160869 q -0.342916,0 -0.62868,-0.139707 -0.279413,-0.146056 -0.488973,-0.381018 -0.203209,-0.234961 -0.317515,-0.539775 -0.114305,-0.304814 -0.114305,-0.62868 0,-0.342916 0.107955,-0.654081 0.114305,-0.317515 0.317515,-0.552476 0.20321,-0.234961 0.482623,-0.374667 0.285763,-0.139707 0.628679,-0.139707 0.425471,0 0.736635,0.21591 0.311165,0.20956 0.533425,0.533425 v -0.692182 h 0.387369 v 3.321207 q 0,0.342916 -0.133357,0.603278 -0.127006,0.266713 -0.349266,0.444524 -0.21591,0.17781 -0.514374,0.26671 -0.292114,0.0889 -0.62233,0.0889 -0.571527,0 -0.920793,-0.20321 -0.349267,-0.20321 -0.565177,-0.546122 l 0.266713,-0.209559 q 0.196859,0.317515 0.520724,0.463571 0.323866,0.15241 0.698533,0.15241 0.241312,0 0.457222,-0.0699 0.21591,-0.0635 0.374668,-0.196855 0.165107,-0.127006 0.260362,-0.330216 0.09525,-0.196859 0.09525,-0.463571 v -0.654081 q -0.190509,0.317515 -0.520724,0.501673 -0.330216,0.184159 -0.692183,0.184159 z m 0.120656,-0.361967 q 0.190509,0 0.374667,-0.06985 0.184159,-0.06985 0.330216,-0.184159 0.152407,-0.120656 0.254012,-0.266713 0.101605,-0.146057 0.133356,-0.298464 v -1.022398 q -0.06985,-0.177808 -0.190509,-0.330216 -0.120655,-0.152407 -0.273063,-0.260362 -0.152407,-0.107955 -0.330215,-0.171458 -0.171458,-0.0635 -0.349267,-0.0635 -0.279413,0 -0.501673,0.120656 -0.215911,0.114305 -0.368318,0.304814 -0.152407,0.190509 -0.234961,0.43182 -0.0762,0.241312 -0.0762,0.488974 0,0.266712 0.09525,0.508024 0.09525,0.241311 0.260362,0.42547 0.171458,0.177808 0.393719,0.285763 0.22226,0.101605 0.482623,0.101605 z" style="font-style:normal;font-variant:normal;font-weight:normal;font-stretch:normal;font-family:Raleway;-inkscape-font-specification:Raleway;text-align:center;text-anchor:middle;fill:#f9f9f9;fill-opacity:1;stroke-width:0.158757" id="path75" />
         <path d="m 76.11132,99.116417 v -3.308506 h 0.431821 v 3.308506 z m 0,-4.000689 v -0.63503 h 0.431821 v 0.63503 z" style="font-style:normal;font-variant:normal;font-weight:normal;font-stretch:normal;font-family:Raleway;-inkscape-font-specification:Raleway;text-align:center;text-anchor:middle;fill:#f9f9f9;fill-opacity:1;stroke-width:0.158757" id="path77" />
         <path d="m 39.752978,107.20258 q -0.342916,0 -0.63503,-0.13971 -0.292114,-0.14606 -0.501674,-0.38102 -0.20956,-0.23496 -0.330215,-0.53977 -0.114306,-0.31117 -0.114306,-0.64773 0,-0.34927 0.114306,-0.66043 0.114305,-0.31752 0.311164,-0.55248 0.20321,-0.23496 0.476273,-0.36832 0.279413,-0.1397 0.609629,-0.1397 0.419119,0 0.742985,0.22226 0.323865,0.21591 0.508024,0.52707 v -2.01939 h 0.43182 v 4.07689 q 0,0.17781 0.152407,0.17781 v 0.38102 q -0.09525,0.019 -0.152407,0.019 -0.152407,0 -0.266713,-0.0953 -0.114305,-0.1016 -0.114305,-0.24131 v -0.32386 q -0.196859,0.32386 -0.533425,0.51437 -0.336566,0.19051 -0.698533,0.19051 z m 0.09525,-0.38102 q 0.158758,0 0.336566,-0.0635 0.184159,-0.0635 0.342917,-0.17146 0.158757,-0.11431 0.266712,-0.26036 0.114306,-0.15241 0.139707,-0.32387 v -1.0224 q -0.0635,-0.17145 -0.184159,-0.31751 -0.120656,-0.15241 -0.279413,-0.26671 -0.152407,-0.11431 -0.330216,-0.17781 -0.177808,-0.0635 -0.349266,-0.0635 -0.266713,0 -0.482623,0.11431 -0.21591,0.11431 -0.374668,0.30481 -0.152407,0.18416 -0.234961,0.42547 -0.08255,0.24132 -0.08255,0.49533 0,0.26671 0.09526,0.50802 0.09525,0.24131 0.260362,0.42547 0.165108,0.17781 0.387368,0.28577 0.228611,0.10795 0.488973,0.10795 z" style="font-style:normal;font-variant:normal;font-weight:normal;font-stretch:normal;font-family:Raleway;-inkscape-font-specification:Raleway;text-align:center;text-anchor:middle;fill:#f9f9f9;fill-opacity:1;stroke-width:0.158757" id="path79" />
         <path d="m 43.170035,107.20258 q -0.234961,0 -0.438171,-0.0762 -0.196859,-0.0825 -0.349267,-0.22226 -0.146056,-0.1397 -0.22861,-0.32386 -0.08255,-0.19051 -0.08255,-0.40642 0,-0.21591 0.101605,-0.40007 0.101604,-0.18416 0.285763,-0.31751 0.184159,-0.13336 0.438171,-0.20321 0.254012,-0.0762 0.558826,-0.0762 0.254012,0 0.514374,0.0444 0.260363,0.0445 0.463572,0.12701 v -0.29846 q 0,-0.43817 -0.247661,-0.69219 -0.247662,-0.26036 -0.685833,-0.26036 -0.254012,0 -0.520724,0.10161 -0.266713,0.1016 -0.539776,0.29211 l -0.152407,-0.28576 q 0.64138,-0.43182 1.244659,-0.43182 0.622329,0 0.977946,0.34926 0.355617,0.34927 0.355617,0.96525 v 1.49232 q 0,0.17781 0.158757,0.17781 v 0.38102 q -0.107955,0.019 -0.165108,0.019 -0.165107,0 -0.260362,-0.0826 -0.0889,-0.0825 -0.09525,-0.22861 l -0.0127,-0.26036 q -0.228611,0.29846 -0.577877,0.45722 -0.342916,0.15876 -0.742985,0.15876 z m 0.101604,-0.33022 q 0.336566,0 0.61598,-0.127 0.285763,-0.12701 0.43182,-0.33657 0.05715,-0.0571 0.08255,-0.12065 0.03175,-0.0699 0.03175,-0.12701 v -0.53978 q -0.21591,-0.0826 -0.450871,-0.127 -0.228611,-0.0444 -0.469922,-0.0444 -0.457222,0 -0.742985,0.1905 -0.285764,0.19051 -0.285764,0.50168 0,0.15241 0.05715,0.28576 0.0635,0.13336 0.165108,0.23496 0.107955,0.0953 0.254012,0.15241 0.146057,0.0572 0.311164,0.0572 z" style="font-style:normal;font-variant:normal;font-weight:normal;font-stretch:normal;font-family:Raleway;-inkscape-font-specification:Raleway;text-align:center;text-anchor:middle;fill:#f9f9f9;fill-opacity:1;stroke-width:0.158757" id="path81" />
         <path d="m 48.579994,107.13908 h -0.431821 v -1.84794 q 0,-0.59058 -0.177808,-0.85729 -0.171458,-0.26672 -0.533425,-0.26672 -0.190509,0 -0.381018,0.0699 -0.190509,0.0698 -0.355617,0.19686 -0.158758,0.127 -0.285764,0.30481 -0.127005,0.17146 -0.184158,0.37467 v 2.02575 h -0.431821 v -3.30851 h 0.393719 v 0.74933 q 0.20321,-0.36196 0.577877,-0.58422 0.381018,-0.22226 0.825539,-0.22226 0.273063,0 0.463572,0.1016 0.190509,0.10161 0.304815,0.28576 0.114305,0.18416 0.165107,0.45088 0.0508,0.26671 0.0508,0.59057 z" style="font-style:normal;font-variant:normal;font-weight:normal;font-stretch:normal;font-family:Raleway;-inkscape-font-specification:Raleway;text-align:center;text-anchor:middle;fill:#f9f9f9;fill-opacity:1;stroke-width:0.158757" id="path83" />
         <path d="m 51.220726,107.13908 v -4.50872 h 1.866988 q 0.292114,0 0.533426,0.12701 0.247661,0.12065 0.42547,0.32386 0.177808,0.19686 0.279413,0.45087 0.101605,0.25402 0.101605,0.51438 0,0.27941 -0.09526,0.53977 -0.09525,0.25402 -0.266712,0.45088 -0.171459,0.19686 -0.41277,0.31751 -0.234961,0.12066 -0.527075,0.12066 h -1.460569 v 1.66378 z m 0.444521,-2.0575 h 1.441518 q 0.19686,0 0.355617,-0.0826 0.165108,-0.0889 0.279413,-0.22861 0.114306,-0.14605 0.177809,-0.33021 0.0635,-0.19051 0.0635,-0.39372 0,-0.20956 -0.0762,-0.39372 -0.06985,-0.19051 -0.196859,-0.33021 -0.120656,-0.13971 -0.292114,-0.21592 -0.165108,-0.0825 -0.349267,-0.0825 h -1.403416 z" style="font-style:normal;font-variant:normal;font-weight:normal;font-stretch:normal;font-family:Raleway;-inkscape-font-specification:Raleway;text-align:center;text-anchor:middle;fill:#f9f9f9;fill-opacity:1;stroke-width:0.158757" id="path85" />
         <path d="m 56.442756,107.20258 q -0.361967,0 -0.666782,-0.13336 -0.298464,-0.1397 -0.520724,-0.37467 -0.222261,-0.24131 -0.349267,-0.55247 -0.120655,-0.31117 -0.120655,-0.66678 0,-0.34927 0.120655,-0.65408 0.127006,-0.31117 0.342916,-0.53978 0.222261,-0.23496 0.527075,-0.36832 0.304815,-0.1397 0.660431,-0.1397 0.361968,0 0.660432,0.1397 0.304814,0.13336 0.520724,0.36832 0.21591,0.23496 0.336566,0.53978 0.120656,0.30481 0.120656,0.64773 0,0.0508 0,0.1016 0,0.0508 -0.0063,0.0699 h -2.832234 q 0.01905,0.26672 0.120656,0.49533 0.107955,0.22226 0.273062,0.38737 0.165108,0.1651 0.374668,0.26036 0.21591,0.0889 0.457222,0.0889 0.158757,0 0.317515,-0.0444 0.158757,-0.0444 0.292113,-0.12066 0.133357,-0.0762 0.241312,-0.18415 0.107955,-0.11431 0.165108,-0.24767 l 0.374667,0.10161 q -0.0762,0.18416 -0.21591,0.33657 -0.139706,0.14605 -0.323865,0.26036 -0.184159,0.10795 -0.406419,0.16511 -0.222261,0.0635 -0.463572,0.0635 z m 1.219257,-1.89239 q -0.01905,-0.26671 -0.127006,-0.48262 -0.101604,-0.22226 -0.266712,-0.38102 -0.158758,-0.15876 -0.374668,-0.24766 -0.20956,-0.0889 -0.450871,-0.0889 -0.241312,0 -0.457222,0.0889 -0.21591,0.0889 -0.381018,0.24766 -0.158757,0.15876 -0.260362,0.38102 -0.09526,0.22226 -0.114305,0.48262 z" style="font-style:normal;font-variant:normal;font-weight:normal;font-stretch:normal;font-family:Raleway;-inkscape-font-specification:Raleway;text-align:center;text-anchor:middle;fill:#f9f9f9;fill-opacity:1;stroke-width:0.158757" id="path87" />
         <path d="m 60.30999,106.98032 q -0.0381,0.019 -0.114305,0.0508 -0.06985,0.0318 -0.165108,0.0635 -0.09525,0.0317 -0.21591,0.0572 -0.120656,0.0254 -0.254012,0.0254 -0.139707,0 -0.266713,-0.0381 -0.127006,-0.0381 -0.22226,-0.11431 -0.09526,-0.0825 -0.152407,-0.20321 -0.05715,-0.12066 -0.05715,-0.27941 v -2.36866 H 58.4049 v -0.34292 h 0.457222 v -1.11765 h 0.43182 v 1.11765 h 0.762036 v 0.34292 h -0.762036 v 2.248 q 0.0127,0.18416 0.127006,0.27306 0.120656,0.0826 0.273063,0.0826 0.184159,0 0.323865,-0.0571 0.139707,-0.0635 0.177809,-0.0889 z" style="font-style:normal;font-variant:normal;font-weight:normal;font-stretch:normal;font-family:Raleway;-inkscape-font-specification:Raleway;text-align:center;text-anchor:middle;fill:#f9f9f9;fill-opacity:1;stroke-width:0.158757" id="path89" />
         <path d="m 61.687607,107.20258 q -0.234961,0 -0.43817,-0.0762 -0.19686,-0.0825 -0.349267,-0.22226 -0.146057,-0.1397 -0.228611,-0.32386 -0.08255,-0.19051 -0.08255,-0.40642 0,-0.21591 0.101605,-0.40007 0.101605,-0.18416 0.285764,-0.31751 0.184158,-0.13336 0.43817,-0.20321 0.254012,-0.0762 0.558827,-0.0762 0.254012,0 0.514374,0.0444 0.260362,0.0445 0.463572,0.12701 v -0.29846 q 0,-0.43817 -0.247662,-0.69219 -0.247661,-0.26036 -0.685832,-0.26036 -0.254012,0 -0.520725,0.10161 -0.266712,0.1016 -0.539775,0.29211 l -0.152407,-0.28576 q 0.64138,-0.43182 1.244658,-0.43182 0.62233,0 0.977947,0.34926 0.355616,0.34927 0.355616,0.96525 v 1.49232 q 0,0.17781 0.158758,0.17781 v 0.38102 q -0.107955,0.019 -0.165108,0.019 -0.165108,0 -0.260362,-0.0826 -0.0889,-0.0825 -0.09526,-0.22861 l -0.0127,-0.26036 q -0.228611,0.29846 -0.577878,0.45722 -0.342916,0.15876 -0.742985,0.15876 z m 0.101605,-0.33022 q 0.336566,0 0.615979,-0.127 0.285764,-0.12701 0.431821,-0.33657 0.05715,-0.0571 0.08255,-0.12065 0.03175,-0.0699 0.03175,-0.12701 v -0.53978 q -0.21591,-0.0826 -0.450871,-0.127 -0.228611,-0.0444 -0.469923,-0.0444 -0.457221,0 -0.742985,0.1905 -0.285763,0.19051 -0.285763,0.50168 0,0.15241 0.05715,0.28576 0.0635,0.13336 0.165107,0.23496 0.107956,0.0953 0.254012,0.15241 0.146057,0.0572 0.311165,0.0572 z" style="font-style:normal;font-variant:normal;font-weight:normal;font-stretch:normal;font-family:Raleway;-inkscape-font-specification:Raleway;text-align:center;text-anchor:middle;fill:#f9f9f9;fill-opacity:1;stroke-width:0.158757" id="path91" />
         <path d="m 67.097568,107.13908 h -0.43182 v -1.84794 q 0,-0.59058 -0.177809,-0.85729 -0.171458,-0.26672 -0.533425,-0.26672 -0.190509,0 -0.381018,0.0699 -0.190509,0.0698 -0.355617,0.19686 -0.158757,0.127 -0.285763,0.30481 -0.127006,0.17146 -0.184159,0.37467 v 2.02575 h -0.43182 v -3.30851 h 0.393718 v 0.74933 q 0.20321,-0.36196 0.577878,-0.58422 0.381018,-0.22226 0.825539,-0.22226 0.273062,0 0.463571,0.1016 0.190509,0.10161 0.304815,0.28576 0.114305,0.18416 0.165108,0.45088 0.0508,0.26671 0.0508,0.59057 z" style="font-style:normal;font-variant:normal;font-weight:normal;font-stretch:normal;font-family:Raleway;-inkscape-font-specification:Raleway;text-align:center;text-anchor:middle;fill:#f9f9f9;fill-opacity:1;stroke-width:0.158757" id="path93" />
         <path d="m 69.351825,107.18353 q -0.342917,0 -0.62868,-0.13971 -0.279413,-0.14606 -0.488973,-0.38102 -0.20321,-0.23496 -0.317515,-0.53977 -0.114306,-0.30482 -0.114306,-0.62868 0,-0.34292 0.107955,-0.65408 0.114306,-0.31752 0.317515,-0.55248 0.20321,-0.23496 0.482623,-0.37467 0.285764,-0.1397 0.62868,-0.1397 0.42547,0 0.736635,0.21591 0.311164,0.20956 0.533425,0.53342 v -0.69218 h 0.387368 v 3.32121 q 0,0.34291 -0.133356,0.60327 -0.127006,0.26672 -0.349267,0.44453 -0.21591,0.1778 -0.514374,0.26671 -0.292114,0.0889 -0.622329,0.0889 -0.571527,0 -0.920794,-0.20321 -0.349266,-0.20321 -0.565176,-0.54612 l 0.266712,-0.20956 q 0.196859,0.31751 0.520725,0.46357 0.323865,0.15241 0.698533,0.15241 0.241311,0 0.457221,-0.0699 0.21591,-0.0635 0.374668,-0.19686 0.165108,-0.127 0.260362,-0.33021 0.09526,-0.19686 0.09526,-0.46357 v -0.65408 q -0.190509,0.31751 -0.520725,0.50167 -0.330215,0.18416 -0.692182,0.18416 z m 0.120655,-0.36197 q 0.190509,0 0.374668,-0.0699 0.184159,-0.0699 0.330215,-0.18416 0.152408,-0.12066 0.254012,-0.26671 0.101605,-0.14606 0.133357,-0.29847 v -1.0224 q -0.06985,-0.17781 -0.190509,-0.33021 -0.120656,-0.15241 -0.273063,-0.26036 -0.152407,-0.10796 -0.330216,-0.17146 -0.171458,-0.0635 -0.349266,-0.0635 -0.279413,0 -0.501674,0.12066 -0.21591,0.11431 -0.368317,0.30481 -0.152407,0.19051 -0.234961,0.43182 -0.0762,0.24132 -0.0762,0.48898 0,0.26671 0.09525,0.50802 0.09525,0.24131 0.260362,0.42547 0.171458,0.17781 0.393718,0.28577 0.222261,0.1016 0.482623,0.1016 z" style="font-style:normal;font-variant:normal;font-weight:normal;font-stretch:normal;font-family:Raleway;-inkscape-font-specification:Raleway;text-align:center;text-anchor:middle;fill:#f9f9f9;fill-opacity:1;stroke-width:0.158757" id="path95" />
      </g>
      <text id="text62" y="114.79606" x="20.844572" style="font-style:normal;font-weight:normal;font-size:8.41268px;line-height:1.25;font-family:sans-serif;letter-spacing:1.05833px;fill:#f9f9f9;fill-opacity:1;stroke:none;stroke-width:0.210317;" xml:space="preserve">
         <tspan id="tspan64" style="font-style:normal;font-variant:normal;font-weight:bold;font-stretch:normal;font-family:Raleway;-inkscape-font-specification:'Raleway Bold';fill:#f9f9f9;stroke-width:0.210317;" y="114.79606" x="20.844572" sodipodi:role="line">(SUGRA)</tspan>
      </text>
      <rect style="fill:#14854f;fill-opacity:1;stroke:none;stroke-width:9.26042;stroke-linecap:round;stroke-linejoin:round" id="rect1005" width="44.901279" height="44.901279" x="118.48857" y="35.954468" ry="3.6375635" inkscape:export-xdpi="100.12632" inkscape:export-ydpi="100.12632" />
      <g id="g987" transform="matrix(0.46370271,0,0,0.46370271,121.62667,9.8031288)" style="fill:#ffffff">
         <g transform="matrix(0.88981548,0,0,0.88981548,-1099.4421,125.39353)" style="font-style:normal;font-weight:normal;font-size:27.095px;line-height:1.25;font-family:sans-serif;fill:#ffffff;fill-opacity:1;stroke:none;stroke-width:0.677378" id="g907" aria-label="المأثورات">
            <path id="path883" style="font-style:normal;font-variant:normal;font-weight:normal;font-stretch:normal;font-family:Mothanna;-inkscape-font-specification:Mothanna;fill:#ffffff;fill-opacity:1;stroke-width:0.677378" d="m 1327.2663,-44.807956 q -0.026,0.502739 -0.1852,0.846719 -0.2911,0.714418 -1.1907,0.714418 -0.8997,0 -1.2436,-0.608579 -0.079,-0.132299 -0.1853,-0.661499 v -15.505536 q 0,-0.37044 0.1853,-0.767339 0.3704,-0.714419 1.2436,-0.714419 0.8467,0 1.2171,0.714419 0.053,0.10584 0.1588,0.767339 z" />
            <path id="path885" style="font-style:normal;font-variant:normal;font-weight:normal;font-stretch:normal;font-family:Mothanna;-inkscape-font-specification:Mothanna;fill:#ffffff;fill-opacity:1;stroke-width:0.677378" d="m 1321.3128,-46.236794 q 0,1.587598 -0.8996,2.328476 -0.8203,0.661499 -2.6196,0.661499 h -1.27 v -2.645996 h 1.0319 0.027 q 0.4762,-0.05292 0.6879,-0.291059 0.2382,-0.23814 0.2382,-0.740879 v -13.04476 q 0.079,-0.55566 0.1587,-0.714419 0.3705,-0.661499 1.2436,-0.661499 0.8468,0 1.2172,0.608579 0.1058,0.370439 0.1852,0.767339 z" />
            <path id="path887" style="font-style:normal;font-variant:normal;font-weight:normal;font-stretch:normal;font-family:Mothanna;-inkscape-font-specification:Mothanna;fill:#ffffff;fill-opacity:1;stroke-width:0.677378" d="m 1311.7343,-45.998654 c -0.4233,-0.405719 -0.9084,-0.608579 -1.4553,-0.608579 -0.5821,0 -1.0672,0.20286 -1.4553,0.608579 -0.3881,0.405719 -0.5821,0.873178 -0.5821,1.402377 0,0.564479 0.194,1.040759 0.5821,1.428838 0.4057,0.405719 0.8908,0.608579 1.4553,0.608579 0.5469,0 1.0231,-0.19404 1.4288,-0.582119 0.4057,-0.370439 0.6086,-0.855539 0.6086,-1.455298 0,-0.529199 -0.194,-0.996658 -0.5821,-1.402377 z m 5.8247,2.751835 h -2.8876 c -0.017,0.03528 -0.035,0.09702 -0.053,0.18522 -0.1587,0.458639 -0.2822,0.767339 -0.3704,0.926099 -0.088,0.158759 -0.2558,0.379259 -0.5027,0.661499 -0.2999,0.335159 -0.7586,0.670319 -1.376,1.005478 -0.5645,0.29988 -1.3406,0.44982 -2.3284,0.44982 -1.2701,0 -2.3197,-0.485099 -3.1488,-1.455298 -0.1058,-0.12348 -0.2028,-0.24696 -0.291,-0.37044 -0.088,-0.123479 -0.1588,-0.229319 -0.2117,-0.317519 -0.053,-0.07056 -0.1144,-0.1764 -0.1852,-0.31752 -0.053,-0.123479 -0.088,-0.202859 -0.1059,-0.238139 -0.017,-0.03528 -0.061,-0.1323 -0.1323,-0.29106 -0.053,-0.14112 -0.079,-0.2205 -0.079,-0.23814 h -2.7549 v -2.645996 h 2.7549 c 0.1587,-0.388079 0.2646,-0.635039 0.3175,-0.740878 0.053,-0.12348 0.132,-0.27342 0.2381,-0.44982 0.1235,-0.176399 0.2734,-0.370439 0.4498,-0.582119 0.088,-0.14112 0.2823,-0.33516 0.5822,-0.582119 0.7585,-0.652679 1.6934,-0.979019 2.8047,-0.979019 0.8467,0 1.5523,0.15876 2.1168,0.47628 0.5821,0.335159 1.0231,0.679139 1.323,1.031938 0.088,0.10584 0.1676,0.2205 0.2381,0.34398 0.088,0.105839 0.1676,0.238139 0.2382,0.396899 0.071,0.14112 0.1234,0.25578 0.1587,0.34398 0.035,0.07056 0.088,0.202859 0.1588,0.396899 0.088,0.1764 0.1411,0.29106 0.1588,0.343979 h 2.8876 z" sodipodi:nodetypes="cssscscsccccsccscsccccccccccccsccccccccc" />
            <path id="path889" style="font-style:normal;font-variant:normal;font-weight:normal;font-stretch:normal;font-family:Mothanna;-inkscape-font-specification:Mothanna;fill:#ffffff;fill-opacity:1;stroke-width:0.677378" d="m 1304.0345,-43.246819 h -2.8577 q -0.7674,0 -1.323,-0.158759 -0.5292,-0.18522 -0.8203,-0.42336 -0.2646,-0.238139 -0.4233,-0.687959 -0.1588,-0.449819 -0.1853,-0.820258 -0.026,-0.37044 -0.026,-0.952559 v -6.95897 q 0,-0.767338 0.3969,-1.270078 0.3704,-0.449819 1.0848,-0.449819 0.6615,0 1.0055,0.555659 0.2911,0.44982 0.2911,1.296538 v 6.112251 q 0,0.07938 0,0.21168 0,0.1323 0,0.15876 0,0.343979 0.1323,0.529199 0.1587,0.15876 0.635,0.211679 h 2.0904 z" />
            <path id="path891" style="font-style:normal;font-variant:normal;font-weight:normal;font-stretch:normal;font-family:Mothanna;-inkscape-font-specification:Mothanna;fill:#ffffff;fill-opacity:1;stroke-width:0.677378" d="m 1302.7115,-56.847238 q 0,0.793799 -0.8203,0.793799 h -4.0219 q -0.3969,-0.02646 -0.5821,-0.05292 -0.1853,-0.02646 -0.3705,-0.21168 -0.1852,-0.185219 -0.1852,-0.555659 0,-0.740879 1.0584,-0.793799 0.053,0 0.079,0 l -0.2382,-0.449819 q -0.1323,-0.396899 -0.1323,-0.793799 0,-1.349458 1.1114,-2.169717 0.5556,-0.396899 1.4288,-0.423359 0.053,-0.02646 0.1058,-0.02646 1.7199,0 2.4079,1.799277 0,0.873179 -0.7144,0.873179 -0.3175,0 -0.5557,-0.18522 -0.1058,-0.132299 -0.2646,-0.370439 -0.1323,-0.23814 -0.2117,-0.31752 -0.053,-0.105839 -0.2646,-0.185219 -0.1852,-0.07938 -0.4762,-0.07938 -0.5557,0 -0.8203,0.343979 -0.2646,0.34398 -0.2646,0.820259 0,0.423359 0.2117,0.687959 0.1058,0.15876 0.2646,0.2646 0.1323,0.105839 0.2381,0.132299 0.079,0.02646 0.1852,0.05292 0.1323,0.02646 0.1588,0.02646 h 1.8522 q 0.8203,0 0.8203,0.820259 z" />
            <path id="path893" style="font-style:normal;font-variant:normal;font-weight:normal;font-stretch:normal;font-family:Mothanna;-inkscape-font-specification:Mothanna;fill:#ffffff;fill-opacity:1;stroke-width:0.677378" d="m 1293.1065,-45.257776 q 0,0.07938 -0.027,0.23814 0,0.1323 -0.1323,0.476279 -0.1058,0.31752 -0.3175,0.608579 -0.1852,0.2646 -0.6086,0.47628 -0.3969,0.211679 -0.9525,0.211679 h -4.2336 v -2.645996 h 2.4343 q 1.1907,0 1.1907,-1.137778 v -4.048374 q 0.079,-0.529199 0.1588,-0.687959 0.3704,-0.687959 1.1642,-0.687959 0.7938,0 1.1378,0.687959 0.1058,0.23814 0.1852,0.687959 z" />
            <path id="path895" style="font-style:normal;font-variant:normal;font-weight:normal;font-stretch:normal;font-family:Mothanna;-inkscape-font-specification:Mothanna;fill:#ffffff;fill-opacity:1;stroke-width:0.677378" d="m 1293.0271,-59.784293 q 0,0.529199 -0.4498,1.031938 -0.3969,0.423359 -1.0055,0.423359 -0.6086,0 -1.0055,-0.423359 -0.4498,-0.423359 -0.4498,-1.031938 0,-0.55566 0.4234,-0.979019 0.5027,-0.476279 1.0319,-0.476279 0.5292,0 0.979,0.476279 0.4763,0.449819 0.4763,0.979019 z m 2.302,3.968994 q 0,0.555659 -0.4233,1.005478 -0.4234,0.449819 -1.0055,0.449819 -0.6615,0 -1.032,-0.396899 -0.4233,-0.449819 -0.4233,-1.058398 0,-0.5292 0.4233,-1.005479 0.3969,-0.449819 1.032,-0.449819 0.6086,0 1.0055,0.396899 0.4233,0.44982 0.4233,1.058399 z m -4.5511,0 q 0,0.608579 -0.3969,1.005478 -0.4763,0.449819 -1.0319,0.449819 -0.6086,0 -1.0055,-0.423359 -0.4498,-0.423359 -0.4498,-1.031938 0,-0.5292 0.4233,-1.005479 0.3969,-0.449819 1.032,-0.449819 0.6086,0 1.0319,0.423359 0.3969,0.3969 0.3969,1.031939 z" />
            <path id="path897" style="font-style:normal;font-variant:normal;font-weight:normal;font-stretch:normal;font-family:Mothanna;-inkscape-font-specification:Mothanna;fill:#ffffff;fill-opacity:1;stroke-width:0.677378" d="m 1288.2921,-45.892815 v 2.645996 h -5.1875 c -1.3935,2.469597 -2.205,3.871975 -2.4343,4.207134 -0.1941,0.28224 -0.4057,0.441 -0.635,0.476279 -0.1411,0.03528 -0.2558,0.05292 -0.344,0.05292 -0.1764,0 -0.3616,-0.05292 -0.5557,-0.158759 -0.3351,-0.1764 -0.5292,-0.40572 -0.5821,-0.687959 -0.053,-0.2646 -0.017,-0.53802 0.1058,-0.820259 0.088,-0.22932 0.6703,-1.252439 1.7464,-3.069356 -1.3053,0 -2.3461,-0.352799 -3.1223,-1.058398 -0.5468,-0.511559 -0.926,-1.093678 -1.1377,-1.746357 -0.2117,-0.652679 -0.3176,-1.225979 -0.3176,-1.719898 0.071,-1.534677 0.6616,-2.743015 1.7729,-3.625014 0.8467,-0.670319 1.808,-1.005479 2.8841,-1.005479 1.1995,0 2.2756,0.458639 3.2281,1.375918 0.9349,0.917279 1.4024,1.984497 1.4024,3.201655 0,0.493919 -0.097,0.952559 -0.2911,1.375918 l -0.2381,0.555659 z m -7.9129,0.1323 c 0.5116,0 0.9791,-0.18522 1.4024,-0.555659 0.4234,-0.370439 0.6351,-0.855539 0.6351,-1.455298 0,-0.564479 -0.2029,-1.040758 -0.6086,-1.428838 -0.3881,-0.405719 -0.8644,-0.608579 -1.4289,-0.608579 -0.5468,0 -1.0319,0.19404 -1.4553,0.582119 -0.4057,0.38808 -0.6085,0.873179 -0.6085,1.455298 0,0.529199 0.2028,0.996659 0.6085,1.402378 0.441,0.405719 0.9261,0.608579 1.4553,0.608579 z" sodipodi:nodetypes="cccccsccccccccscscccscscscscs" />
            <path id="path899" style="font-style:normal;font-variant:normal;font-weight:normal;font-stretch:normal;font-family:Mothanna;-inkscape-font-specification:Mothanna;fill:#ffffff;fill-opacity:1;stroke-width:0.677378" d="m 1271.3035,-52.745944 q 0.3969,0 0.6615,0.1323 0.2646,0.105839 0.3969,0.396899 0.1587,0.291059 0.1852,0.476279 0.053,0.18522 0.1323,0.582119 v 9.631426 q 0,0.767339 -0.1323,1.349458 -0.1058,0.608579 -0.3175,0.926098 -0.2117,0.31752 -0.3705,0.47628 -0.1587,0.185219 -0.3704,0.291059 l -0.2117,0.10584 q -0.4498,0.1323 -0.6615,0.1323 -0.079,0 -0.3704,0 -0.1059,0 -0.2382,0 -0.1058,0 -0.1323,0 -0.079,0 -0.1323,0 -1.7463,0 -1.7463,-1.296538 0,-0.661499 0.291,-0.979019 0.3176,-0.317519 0.6615,-0.343979 0.3705,-0.02646 0.6615,-0.21168 0.2911,-0.15876 0.2911,-0.555659 0,-0.05292 0,-0.15876 0,-0.07938 0,-0.10584 l -0.026,-9.260986 v -0.02646 q 0,-0.608579 0.3176,-1.084858 0.3175,-0.476279 1.0848,-0.476279 z" />
            <path id="path901" style="font-style:normal;font-variant:normal;font-weight:normal;font-stretch:normal;font-family:Mothanna;-inkscape-font-specification:Mothanna;fill:#ffffff;fill-opacity:1;stroke-width:0.677378" d="m 1264.8208,-44.807956 q -0.026,0.502739 -0.1852,0.846719 -0.2911,0.714418 -1.1907,0.714418 -0.8997,0 -1.2436,-0.608579 -0.079,-0.132299 -0.1853,-0.661499 v -15.505536 q 0,-0.37044 0.1853,-0.767339 0.3704,-0.714419 1.2436,-0.714419 0.8467,0 1.2171,0.714419 0.053,0.10584 0.1588,0.767339 z" />
            <path id="path903" style="font-style:normal;font-variant:normal;font-weight:normal;font-stretch:normal;font-family:Mothanna;-inkscape-font-specification:Mothanna;fill:#ffffff;fill-opacity:1;stroke-width:0.677378" d="m 1258.1793,-43.828938 q -0.2116,0.21168 -0.5556,0.37044 -0.3175,0.15876 -0.4763,0.185219 -0.1588,0.02646 -0.2117,0.02646 h -14.8176 q -0.8467,0 -1.7992,-0.343979 -0.9526,-0.34398 -1.6141,-1.031938 -1.1907,-1.164239 -1.1907,-3.228116 0,-2.010957 1.1907,-3.254575 0.635,-0.661499 1.667,-1.005478 1.0584,-0.34398 1.7463,-0.34398 h 7.4882 q 0.5557,0.07938 0.7144,0.15876 0.6615,0.34398 0.6615,1.164238 0,0.820259 -0.635,1.164239 -0.1588,0.07938 -0.7409,0.158759 h -7.3559 q -0.2116,0 -0.5027,0.07938 -0.2911,0.05292 -0.7409,0.23814 -0.4233,0.15876 -0.7144,0.635039 -0.2911,0.449819 -0.2911,1.111318 0,0.608579 0.2911,1.031939 0.2911,0.396899 0.7144,0.582119 0.4498,0.15876 0.7409,0.211679 0.3175,0.05292 0.5027,0.05292 h 12.7273 q 1.2171,0 1.2171,-1.111318 v -4.101294 q 0.053,-0.396899 0.1853,-0.687959 0.3175,-0.687959 1.1377,-0.687959 0.8203,0 1.1643,0.687959 0.1323,0.2646 0.1587,0.687959 v 5.900571 q 0,0.635039 -0.6615,1.349458 z" />
            <path id="path905" style="font-style:normal;font-variant:normal;font-weight:normal;font-stretch:normal;font-family:Mothanna;-inkscape-font-specification:Mothanna;fill:#ffffff;fill-opacity:1;stroke-width:0.677378" d="m 1255.0835,-59.757834 q 0,0.502739 -0.4498,0.979019 -0.4234,0.423359 -0.979,0.423359 0,0 -0.026,0 -0.026,0 -0.026,0 -0.5557,0 -0.9261,-0.3969 -0.4234,-0.396899 -0.4234,-1.005478 0,-0.582119 0.4234,-1.031938 0.3969,-0.42336 0.979,-0.42336 0.5821,0 1.0055,0.449819 0.4233,0.3969 0.4233,1.005479 z m 0,4.498193 q 0,0.502739 -0.4498,0.979019 -0.4498,0.449819 -0.979,0.449819 -0.5557,0 -0.979,-0.449819 -0.4234,-0.3969 -0.4234,-0.979019 0,-0.582119 0.4234,-1.031938 0.3704,-0.3969 0.979,-0.3969 0.6086,0 1.0055,0.3969 0.4233,0.449819 0.4233,1.031938 z" />
         </g>
         <g transform="matrix(1.2847276,0,0,1.2847276,-28.600833,-10.535023)" aria-label="Al-MA'TSURAT" id="g933" style="font-style:normal;font-weight:normal;font-size:8.61177px;line-height:1.25;font-family:sans-serif;fill:#ffffff;fill-opacity:1;stroke:none;stroke-width:0.215295">
            <path d="m 27.190888,83.712578 h 1.050636 l 2.325177,6.114357 H 29.34383 l -0.568377,-1.524283 h -2.135719 l -0.559765,1.524283 h -1.222871 z m 1.369271,3.754732 -0.843953,-2.402684 -0.878401,2.402684 z" style="font-style:normal;font-variant:normal;font-weight:bold;font-stretch:normal;font-family:Raleway;-inkscape-font-specification:'Raleway Bold';fill:#ffffff;fill-opacity:1;stroke-width:0.215295" id="path909" />
            <path d="m 31.116778,83.540343 h 1.153977 v 4.839815 q 0,0.249741 0.120565,0.387529 0.120565,0.137788 0.344471,0.137788 0.103341,0 0.223906,-0.03445 0.129176,-0.03445 0.241129,-0.08612 l 0.155012,0.8784 q -0.232518,0.111953 -0.542541,0.172236 -0.310024,0.06028 -0.559765,0.06028 -0.542542,0 -0.843954,-0.284188 -0.2928,-0.292801 -0.2928,-0.82673 z" style="font-style:normal;font-variant:normal;font-weight:bold;font-stretch:normal;font-family:Raleway;-inkscape-font-specification:'Raleway Bold';fill:#ffffff;fill-opacity:1;stroke-width:0.215295" id="path911" />
            <path d="m 33.656173,87.984016 v -1.042024 h 2.609366 v 1.042024 z" style="font-style:normal;font-variant:normal;font-weight:bold;font-stretch:normal;font-family:Raleway;-inkscape-font-specification:'Raleway Bold';fill:#ffffff;fill-opacity:1;stroke-width:0.215295" id="path913" />
            <path d="m 42.379627,89.826935 v -4.047532 l -1.575954,3.014119 h -0.645882 l -1.575954,-3.014119 v 4.047532 h -1.188424 v -6.114357 h 1.274542 l 1.808471,3.479155 1.825695,-3.479155 h 1.26593 v 6.114357 z" style="font-style:normal;font-variant:normal;font-weight:bold;font-stretch:normal;font-family:Raleway;-inkscape-font-specification:'Raleway Bold';fill:#ffffff;fill-opacity:1;stroke-width:0.215295" id="path915" />
            <path d="m 46.584189,83.712578 h 1.050636 l 2.325177,6.114357 h -1.222871 l -0.568377,-1.524283 h -2.135719 l -0.559765,1.524283 h -1.222871 z m 1.369271,3.754732 -0.843953,-2.402684 -0.878401,2.402684 z" style="font-style:normal;font-variant:normal;font-weight:bold;font-stretch:normal;font-family:Raleway;-inkscape-font-specification:'Raleway Bold';fill:#ffffff;fill-opacity:1;stroke-width:0.215295" id="path917" />
            <path d="m 49.929996,85.529662 v -1.929037 h 0.981742 v 1.929037 z" style="font-style:normal;font-variant:normal;font-weight:bold;font-stretch:normal;font-family:Raleway;-inkscape-font-specification:'Raleway Bold';fill:#ffffff;fill-opacity:1;stroke-width:0.215295" id="path919" />
            <path d="M 56.633182,84.754602 H 54.67831 v 5.072333 h -1.179812 v -5.072333 h -1.954872 v -1.042024 h 5.089556 z" style="font-style:normal;font-variant:normal;font-weight:bold;font-stretch:normal;font-family:Raleway;-inkscape-font-specification:'Raleway Bold';fill:#ffffff;fill-opacity:1;stroke-width:0.215295" id="path921" />
            <path d="m 61.035007,85.314368 q -0.06028,-0.06028 -0.223906,-0.163624 -0.155012,-0.103341 -0.38753,-0.198071 -0.223906,-0.103341 -0.490871,-0.172235 -0.266965,-0.06889 -0.542541,-0.06889 -0.490871,0 -0.732001,0.180847 -0.241129,0.180847 -0.241129,0.508094 0,0.189459 0.08612,0.318636 0.09473,0.120564 0.266965,0.215294 0.172236,0.09473 0.430589,0.172235 0.266965,0.07751 0.611435,0.163624 0.447812,0.120565 0.809507,0.258353 0.370306,0.137788 0.620047,0.344471 0.258353,0.206682 0.396142,0.499482 0.137788,0.284189 0.137788,0.706166 0,0.49087 -0.189459,0.843953 -0.180847,0.344471 -0.499483,0.559765 -0.310023,0.215294 -0.723388,0.318636 -0.404753,0.09473 -0.852566,0.09473 -0.688941,0 -1.360659,-0.206683 -0.671718,-0.206682 -1.205648,-0.5856 l 0.525318,-1.0248 q 0.07751,0.07751 0.275577,0.206682 0.206682,0.120565 0.482259,0.249741 0.275576,0.120565 0.611435,0.206683 0.335859,0.08612 0.688942,0.08612 0.981742,0 0.981742,-0.62866 0,-0.19807 -0.111953,-0.335859 -0.111953,-0.137788 -0.318636,-0.241129 -0.206682,-0.103341 -0.499482,-0.189459 -0.292801,-0.08612 -0.654495,-0.189459 -0.4392,-0.120565 -0.766447,-0.258353 -0.318636,-0.1464 -0.53393,-0.335859 -0.215294,-0.198071 -0.327247,-0.447812 -0.103342,-0.258353 -0.103342,-0.611436 0,-0.465035 0.172236,-0.82673 0.172235,-0.361694 0.473647,-0.602824 0.310024,-0.241129 0.714777,-0.361694 0.404753,-0.129177 0.869789,-0.129177 0.645883,0 1.188424,0.206683 0.542542,0.198071 0.947295,0.473647 z" style="font-style:normal;font-variant:normal;font-weight:bold;font-stretch:normal;font-family:Raleway;-inkscape-font-specification:'Raleway Bold';fill:#ffffff;fill-opacity:1;stroke-width:0.215295" id="path923" />
            <path d="m 65.257196,88.819358 q 0.421977,0 0.706165,-0.172236 0.2928,-0.172235 0.465036,-0.447812 0.180847,-0.275576 0.249741,-0.628659 0.07751,-0.361694 0.07751,-0.740612 v -3.117461 h 1.179812 v 3.117461 q 0,0.628659 -0.155012,1.179812 -0.1464,0.551154 -0.473647,0.964519 -0.318635,0.413365 -0.82673,0.654494 -0.508094,0.24113 -1.214259,0.24113 -0.732001,0 -1.248707,-0.249742 -0.508094,-0.258353 -0.82673,-0.671718 -0.318635,-0.421976 -0.465035,-0.97313 -0.137789,-0.551153 -0.137789,-1.145365 v -3.117461 h 1.188425 v 3.117461 q 0,0.38753 0.06889,0.749224 0.07751,0.353082 0.249741,0.628659 0.180847,0.275577 0.465036,0.447812 0.284188,0.163624 0.697553,0.163624 z" style="font-style:normal;font-variant:normal;font-weight:bold;font-stretch:normal;font-family:Raleway;-inkscape-font-specification:'Raleway Bold';fill:#ffffff;fill-opacity:1;stroke-width:0.215295" id="path925" />
            <path d="m 69.132493,89.826935 v -6.114357 h 2.704096 q 0.421976,0 0.775059,0.180848 0.361694,0.172235 0.620047,0.465035 0.258354,0.284188 0.404754,0.654495 0.1464,0.361694 0.1464,0.732 0,0.594212 -0.301412,1.085083 -0.2928,0.482259 -0.800895,0.697553 l 1.395107,2.299343 h -1.334824 l -1.248707,-2.049601 h -1.171201 v 2.049601 z m 1.188424,-3.091625 h 1.489836 q 0.163624,0 0.301412,-0.07751 0.1464,-0.07751 0.249742,-0.206683 0.103341,-0.137788 0.163623,-0.318635 0.06028,-0.180848 0.06028,-0.38753 0,-0.215294 -0.06889,-0.396141 -0.06889,-0.180848 -0.189459,-0.310024 -0.111953,-0.137788 -0.266965,-0.206683 -0.1464,-0.07751 -0.301412,-0.07751 h -1.438166 z" style="font-style:normal;font-variant:normal;font-weight:bold;font-stretch:normal;font-family:Raleway;-inkscape-font-specification:'Raleway Bold';fill:#ffffff;fill-opacity:1;stroke-width:0.215295" id="path927" />
            <path d="m 76.489907,83.712578 h 1.050635 l 2.325178,6.114357 h -1.222871 l -0.568377,-1.524283 h -2.135719 l -0.559765,1.524283 h -1.222871 z m 1.369271,3.754732 -0.843954,-2.402684 -0.8784,2.402684 z" style="font-style:normal;font-variant:normal;font-weight:bold;font-stretch:normal;font-family:Raleway;-inkscape-font-specification:'Raleway Bold';fill:#ffffff;fill-opacity:1;stroke-width:0.215295" id="path929" />
            <path d="m 84.503694,84.754602 h -1.954872 v 5.072333 H 81.36901 v -5.072333 h -1.954872 v -1.042024 h 5.089556 z" style="font-style:normal;font-variant:normal;font-weight:bold;font-stretch:normal;font-family:Raleway;-inkscape-font-specification:'Raleway Bold';fill:#ffffff;fill-opacity:1;stroke-width:0.215295" id="path931" />
         </g>
         <g transform="matrix(1.2847276,0,0,1.2847276,-28.670694,-0.48085543)" aria-label="Do'a Dzikir Pagi dan Petang" id="g981" style="font-style:normal;font-weight:normal;font-size:6.3503px;line-height:1.25;font-family:sans-serif;fill:#ffffff;fill-opacity:1;stroke:none;stroke-width:0.158757">
            <path d="m 32.926406,99.116417 v -4.508713 h 1.530422 q 0.539775,0 0.939844,0.177808 0.406419,0.177809 0.673132,0.482623 0.273063,0.304815 0.406419,0.717584 0.139707,0.406419 0.139707,0.869991 0,0.514374 -0.152407,0.933494 -0.152408,0.41277 -0.438171,0.711234 -0.279413,0.292114 -0.679482,0.457221 -0.393719,0.158758 -0.889042,0.158758 z m 3.245003,-2.260707 q 0,-0.406419 -0.114306,-0.742985 -0.114305,-0.342916 -0.336565,-0.590578 -0.215911,-0.247661 -0.533426,-0.381018 -0.317515,-0.139706 -0.730284,-0.139706 h -1.085901 v 3.721275 h 1.085901 q 0.41912,0 0.736635,-0.139706 0.323865,-0.146057 0.539775,-0.393719 0.21591,-0.254012 0.323865,-0.590578 0.114306,-0.342916 0.114306,-0.742985 z" style="font-style:normal;font-variant:normal;font-weight:normal;font-stretch:normal;font-family:Raleway;-inkscape-font-specification:Raleway;text-align:center;text-anchor:middle;fill:#ffffff;fill-opacity:1;stroke-width:0.158757" id="path935" />
            <path d="m 38.78674,99.17992 q -0.361967,0 -0.660431,-0.133356 -0.298464,-0.139707 -0.520725,-0.374668 -0.21591,-0.234961 -0.336566,-0.546126 -0.120655,-0.311165 -0.120655,-0.654081 0,-0.349266 0.120655,-0.660431 0.127006,-0.311165 0.342917,-0.546126 0.22226,-0.234961 0.520724,-0.374667 0.298464,-0.139707 0.654081,-0.139707 0.355617,0 0.654081,0.139707 0.304814,0.139706 0.520725,0.374667 0.22226,0.234961 0.342916,0.546126 0.127006,0.311165 0.127006,0.660431 0,0.342916 -0.120656,0.654081 -0.120656,0.311165 -0.342916,0.546126 -0.21591,0.234961 -0.520725,0.374668 -0.298464,0.133356 -0.660431,0.133356 z m -1.200207,-1.70188 q 0,0.279413 0.09525,0.520724 0.09525,0.234961 0.254012,0.41912 0.165108,0.177808 0.381018,0.279413 0.22226,0.101605 0.469922,0.101605 0.247662,0 0.463572,-0.101605 0.22226,-0.107955 0.387368,-0.285763 0.165108,-0.184159 0.260363,-0.42547 0.09525,-0.241312 0.09525,-0.520725 0,-0.273063 -0.09525,-0.514374 -0.09526,-0.247662 -0.260363,-0.42547 -0.165108,-0.184159 -0.387368,-0.285764 -0.21591,-0.107955 -0.463572,-0.107955 -0.247662,0 -0.463572,0.107955 -0.21591,0.101605 -0.381018,0.285764 -0.165108,0.184158 -0.260362,0.43182 -0.09525,0.241311 -0.09525,0.520725 z" style="font-style:normal;font-variant:normal;font-weight:normal;font-stretch:normal;font-family:Raleway;-inkscape-font-specification:Raleway;text-align:center;text-anchor:middle;fill:#ffffff;fill-opacity:1;stroke-width:0.158757" id="path937" />
            <path d="m 41.010139,95.807911 v -1.238309 h 0.374667 v 1.238309 z" style="font-style:normal;font-variant:normal;font-weight:normal;font-stretch:normal;font-family:Raleway;-inkscape-font-specification:Raleway;text-align:center;text-anchor:middle;fill:#ffffff;fill-opacity:1;stroke-width:0.158757" id="path939" />
            <path d="m 43.058408,99.17992 q -0.234961,0 -0.438171,-0.0762 -0.196859,-0.08255 -0.349266,-0.22226 -0.146057,-0.139707 -0.228611,-0.323865 -0.08255,-0.190509 -0.08255,-0.40642 0,-0.21591 0.101605,-0.400069 0.101605,-0.184158 0.285763,-0.317515 0.184159,-0.133356 0.438171,-0.203209 0.254012,-0.0762 0.558826,-0.0762 0.254012,0 0.514375,0.04445 0.260362,0.04445 0.463571,0.127006 v -0.298464 q 0,-0.43817 -0.247661,-0.692182 -0.247662,-0.260363 -0.685833,-0.260363 -0.254012,0 -0.520724,0.101605 -0.266713,0.101605 -0.539776,0.292114 L 42.17572,96.182584 q 0.64138,-0.43182 1.244659,-0.43182 0.622329,0 0.977946,0.349267 0.355617,0.349266 0.355617,0.965245 v 1.492321 q 0,0.177808 0.158757,0.177808 v 0.381018 q -0.107955,0.01905 -0.165107,0.01905 -0.165108,0 -0.260363,-0.08255 -0.0889,-0.08255 -0.09525,-0.228611 l -0.0127,-0.260362 q -0.228611,0.298464 -0.577877,0.457221 -0.342916,0.158758 -0.742985,0.158758 z m 0.101605,-0.330216 q 0.336565,0 0.615979,-0.127006 0.285763,-0.127006 0.43182,-0.336566 0.05715,-0.05715 0.08255,-0.120655 0.03175,-0.06985 0.03175,-0.127006 v -0.539776 q -0.21591,-0.08255 -0.450871,-0.127006 -0.228611,-0.04445 -0.469922,-0.04445 -0.457222,0 -0.742985,0.190509 -0.285764,0.190509 -0.285764,0.501674 0,0.152407 0.05715,0.285763 0.0635,0.133357 0.165108,0.234961 0.107955,0.09525 0.254012,0.152408 0.146057,0.05715 0.311165,0.05715 z" style="font-style:normal;font-variant:normal;font-weight:normal;font-stretch:normal;font-family:Raleway;-inkscape-font-specification:Raleway;text-align:center;text-anchor:middle;fill:#ffffff;fill-opacity:1;stroke-width:0.158757" id="path941" />
            <path d="m 47.400624,99.116417 v -4.508713 h 1.530422 q 0.539776,0 0.939845,0.177808 0.406419,0.177809 0.673131,0.482623 0.273063,0.304815 0.40642,0.717584 0.139706,0.406419 0.139706,0.869991 0,0.514374 -0.152407,0.933494 -0.152407,0.41277 -0.438171,0.711234 -0.279413,0.292114 -0.679482,0.457221 -0.393718,0.158758 -0.889042,0.158758 z m 3.245003,-2.260707 q 0,-0.406419 -0.114305,-0.742985 -0.114306,-0.342916 -0.336566,-0.590578 -0.21591,-0.247661 -0.533425,-0.381018 -0.317515,-0.139706 -0.730285,-0.139706 h -1.085901 v 3.721275 h 1.085901 q 0.41912,0 0.736635,-0.139706 0.323865,-0.146057 0.539776,-0.393719 0.21591,-0.254012 0.323865,-0.590578 0.114305,-0.342916 0.114305,-0.742985 z" style="font-style:normal;font-variant:normal;font-weight:normal;font-stretch:normal;font-family:Raleway;-inkscape-font-specification:Raleway;text-align:center;text-anchor:middle;fill:#ffffff;fill-opacity:1;stroke-width:0.158757" id="path943" />
            <path d="m 51.571779,98.824303 2.235306,-2.692527 h -2.184503 v -0.323865 h 2.654425 v 0.292114 l -2.228955,2.692527 h 2.222605 v 0.323865 h -2.698878 z" style="font-style:normal;font-variant:normal;font-weight:normal;font-stretch:normal;font-family:Raleway;-inkscape-font-specification:Raleway;text-align:center;text-anchor:middle;fill:#ffffff;fill-opacity:1;stroke-width:0.158757" id="path945" />
            <path d="m 54.97673,99.116417 v -3.308506 h 0.431821 v 3.308506 z m 0,-4.000689 v -0.63503 h 0.431821 v 0.63503 z" style="font-style:normal;font-variant:normal;font-weight:normal;font-stretch:normal;font-family:Raleway;-inkscape-font-specification:Raleway;text-align:center;text-anchor:middle;fill:#ffffff;fill-opacity:1;stroke-width:0.158757" id="path947" />
            <path d="m 58.72817,99.116417 -1.219258,-1.69553 -0.711234,0.660431 v 1.035099 h -0.43182 v -4.635719 h 0.43182 v 3.149749 l 1.860638,-1.816186 h 0.488973 l -1.352614,1.352614 1.403417,1.949542 z" style="font-style:normal;font-variant:normal;font-weight:normal;font-stretch:normal;font-family:Raleway;-inkscape-font-specification:Raleway;text-align:center;text-anchor:middle;fill:#ffffff;fill-opacity:1;stroke-width:0.158757" id="path949" />
            <path d="m 59.727053,99.116417 v -3.308506 h 0.43182 v 3.308506 z m 0,-4.000689 v -0.63503 h 0.43182 v 0.63503 z" style="font-style:normal;font-variant:normal;font-weight:normal;font-stretch:normal;font-family:Raleway;-inkscape-font-specification:Raleway;text-align:center;text-anchor:middle;fill:#ffffff;fill-opacity:1;stroke-width:0.158757" id="path951" />
            <path d="m 62.767258,96.188929 q -0.43817,0.0127 -0.762036,0.241311 -0.323865,0.228611 -0.457221,0.62868 v 2.057497 H 61.11618 v -3.308506 h 0.406419 v 0.793787 q 0.184159,-0.381018 0.495324,-0.596928 0.311165,-0.21591 0.666781,-0.21591 0.0508,0 0.08255,0.0063 z" style="font-style:normal;font-variant:normal;font-weight:normal;font-stretch:normal;font-family:Raleway;-inkscape-font-specification:Raleway;text-align:center;text-anchor:middle;fill:#ffffff;fill-opacity:1;stroke-width:0.158757" id="path953" />
            <path d="m 64.91356,99.116417 v -4.508713 h 1.866988 q 0.292114,0 0.533425,0.127006 0.247662,0.120656 0.42547,0.323865 0.177808,0.19686 0.279413,0.450872 0.101605,0.254012 0.101605,0.514374 0,0.279413 -0.09525,0.539775 -0.09525,0.254012 -0.266713,0.450872 -0.171458,0.196859 -0.41277,0.317515 -0.234961,0.120655 -0.527074,0.120655 h -1.460569 v 1.663779 z m 0.444521,-2.057497 h 1.441518 q 0.196859,0 0.355616,-0.08255 0.165108,-0.0889 0.279414,-0.228611 0.114305,-0.146057 0.177808,-0.330215 0.0635,-0.190509 0.0635,-0.393719 0,-0.20956 -0.0762,-0.393719 -0.06985,-0.190509 -0.196859,-0.330215 -0.120656,-0.139707 -0.292114,-0.21591 -0.165107,-0.08255 -0.349266,-0.08255 h -1.403416 z" style="font-style:normal;font-variant:normal;font-weight:normal;font-stretch:normal;font-family:Raleway;-inkscape-font-specification:Raleway;text-align:center;text-anchor:middle;fill:#ffffff;fill-opacity:1;stroke-width:0.158757" id="path955" />
            <path d="m 69.563468,99.17992 q -0.234961,0 -0.438171,-0.0762 -0.196859,-0.08255 -0.349266,-0.22226 -0.146057,-0.139707 -0.228611,-0.323865 -0.08255,-0.190509 -0.08255,-0.40642 0,-0.21591 0.101605,-0.400069 0.101605,-0.184158 0.285763,-0.317515 0.184159,-0.133356 0.438171,-0.203209 0.254012,-0.0762 0.558826,-0.0762 0.254012,0 0.514375,0.04445 0.260362,0.04445 0.463572,0.127006 v -0.298464 q 0,-0.43817 -0.247662,-0.692182 -0.247662,-0.260363 -0.685832,-0.260363 -0.254012,0 -0.520725,0.101605 -0.266713,0.101605 -0.539775,0.292114 L 68.68078,96.182584 q 0.641381,-0.43182 1.244659,-0.43182 0.622329,0 0.977946,0.349267 0.355617,0.349266 0.355617,0.965245 v 1.492321 q 0,0.177808 0.158758,0.177808 v 0.381018 q -0.107956,0.01905 -0.165108,0.01905 -0.165108,0 -0.260363,-0.08255 -0.0889,-0.08255 -0.09525,-0.228611 l -0.0127,-0.260362 q -0.22861,0.298464 -0.577877,0.457221 -0.342916,0.158758 -0.742985,0.158758 z m 0.101605,-0.330216 q 0.336566,0 0.615979,-0.127006 0.285763,-0.127006 0.43182,-0.336566 0.05715,-0.05715 0.08255,-0.120655 0.03175,-0.06985 0.03175,-0.127006 v -0.539776 q -0.215911,-0.08255 -0.450872,-0.127006 -0.22861,-0.04445 -0.469922,-0.04445 -0.457221,0 -0.742985,0.190509 -0.285763,0.190509 -0.285763,0.501674 0,0.152407 0.05715,0.285763 0.0635,0.133357 0.165108,0.234961 0.107955,0.09525 0.254012,0.152408 0.146057,0.05715 0.311165,0.05715 z" style="font-style:normal;font-variant:normal;font-weight:normal;font-stretch:normal;font-family:Raleway;-inkscape-font-specification:Raleway;text-align:center;text-anchor:middle;fill:#ffffff;fill-opacity:1;stroke-width:0.158757" id="path957" />
            <path d="m 73.51921,99.160869 q -0.342916,0 -0.62868,-0.139707 -0.279413,-0.146056 -0.488973,-0.381018 -0.203209,-0.234961 -0.317515,-0.539775 -0.114305,-0.304814 -0.114305,-0.62868 0,-0.342916 0.107955,-0.654081 0.114305,-0.317515 0.317515,-0.552476 0.20321,-0.234961 0.482623,-0.374667 0.285763,-0.139707 0.628679,-0.139707 0.425471,0 0.736635,0.21591 0.311165,0.20956 0.533425,0.533425 v -0.692182 h 0.387369 v 3.321207 q 0,0.342916 -0.133357,0.603278 -0.127006,0.266713 -0.349266,0.444524 -0.21591,0.17781 -0.514374,0.26671 -0.292114,0.0889 -0.62233,0.0889 -0.571527,0 -0.920793,-0.20321 -0.349267,-0.20321 -0.565177,-0.546122 l 0.266713,-0.209559 q 0.196859,0.317515 0.520724,0.463571 0.323866,0.15241 0.698533,0.15241 0.241312,0 0.457222,-0.0699 0.21591,-0.0635 0.374668,-0.196855 0.165107,-0.127006 0.260362,-0.330216 0.09525,-0.196859 0.09525,-0.463571 v -0.654081 q -0.190509,0.317515 -0.520724,0.501673 -0.330216,0.184159 -0.692183,0.184159 z m 0.120656,-0.361967 q 0.190509,0 0.374667,-0.06985 0.184159,-0.06985 0.330216,-0.184159 0.152407,-0.120656 0.254012,-0.266713 0.101605,-0.146057 0.133356,-0.298464 v -1.022398 q -0.06985,-0.177808 -0.190509,-0.330216 -0.120655,-0.152407 -0.273063,-0.260362 -0.152407,-0.107955 -0.330215,-0.171458 -0.171458,-0.0635 -0.349267,-0.0635 -0.279413,0 -0.501673,0.120656 -0.215911,0.114305 -0.368318,0.304814 -0.152407,0.190509 -0.234961,0.43182 -0.0762,0.241312 -0.0762,0.488974 0,0.266712 0.09525,0.508024 0.09525,0.241311 0.260362,0.42547 0.171458,0.177808 0.393719,0.285763 0.22226,0.101605 0.482623,0.101605 z" style="font-style:normal;font-variant:normal;font-weight:normal;font-stretch:normal;font-family:Raleway;-inkscape-font-specification:Raleway;text-align:center;text-anchor:middle;fill:#ffffff;fill-opacity:1;stroke-width:0.158757" id="path959" />
            <path d="m 76.11132,99.116417 v -3.308506 h 0.431821 v 3.308506 z m 0,-4.000689 v -0.63503 h 0.431821 v 0.63503 z" style="font-style:normal;font-variant:normal;font-weight:normal;font-stretch:normal;font-family:Raleway;-inkscape-font-specification:Raleway;text-align:center;text-anchor:middle;fill:#ffffff;fill-opacity:1;stroke-width:0.158757" id="path961" />
            <path d="m 39.752978,107.20258 q -0.342916,0 -0.63503,-0.13971 -0.292114,-0.14606 -0.501674,-0.38102 -0.20956,-0.23496 -0.330215,-0.53977 -0.114306,-0.31117 -0.114306,-0.64773 0,-0.34927 0.114306,-0.66043 0.114305,-0.31752 0.311164,-0.55248 0.20321,-0.23496 0.476273,-0.36832 0.279413,-0.1397 0.609629,-0.1397 0.419119,0 0.742985,0.22226 0.323865,0.21591 0.508024,0.52707 v -2.01939 h 0.43182 v 4.07689 q 0,0.17781 0.152407,0.17781 v 0.38102 q -0.09525,0.019 -0.152407,0.019 -0.152407,0 -0.266713,-0.0953 -0.114305,-0.1016 -0.114305,-0.24131 v -0.32386 q -0.196859,0.32386 -0.533425,0.51437 -0.336566,0.19051 -0.698533,0.19051 z m 0.09525,-0.38102 q 0.158758,0 0.336566,-0.0635 0.184159,-0.0635 0.342917,-0.17146 0.158757,-0.11431 0.266712,-0.26036 0.114306,-0.15241 0.139707,-0.32387 v -1.0224 q -0.0635,-0.17145 -0.184159,-0.31751 -0.120656,-0.15241 -0.279413,-0.26671 -0.152407,-0.11431 -0.330216,-0.17781 -0.177808,-0.0635 -0.349266,-0.0635 -0.266713,0 -0.482623,0.11431 -0.21591,0.11431 -0.374668,0.30481 -0.152407,0.18416 -0.234961,0.42547 -0.08255,0.24132 -0.08255,0.49533 0,0.26671 0.09526,0.50802 0.09525,0.24131 0.260362,0.42547 0.165108,0.17781 0.387368,0.28577 0.228611,0.10795 0.488973,0.10795 z" style="font-style:normal;font-variant:normal;font-weight:normal;font-stretch:normal;font-family:Raleway;-inkscape-font-specification:Raleway;text-align:center;text-anchor:middle;fill:#ffffff;fill-opacity:1;stroke-width:0.158757" id="path963" />
            <path d="m 43.170035,107.20258 q -0.234961,0 -0.438171,-0.0762 -0.196859,-0.0825 -0.349267,-0.22226 -0.146056,-0.1397 -0.22861,-0.32386 -0.08255,-0.19051 -0.08255,-0.40642 0,-0.21591 0.101605,-0.40007 0.101604,-0.18416 0.285763,-0.31751 0.184159,-0.13336 0.438171,-0.20321 0.254012,-0.0762 0.558826,-0.0762 0.254012,0 0.514374,0.0444 0.260363,0.0445 0.463572,0.12701 v -0.29846 q 0,-0.43817 -0.247661,-0.69219 -0.247662,-0.26036 -0.685833,-0.26036 -0.254012,0 -0.520724,0.10161 -0.266713,0.1016 -0.539776,0.29211 l -0.152407,-0.28576 q 0.64138,-0.43182 1.244659,-0.43182 0.622329,0 0.977946,0.34926 0.355617,0.34927 0.355617,0.96525 v 1.49232 q 0,0.17781 0.158757,0.17781 v 0.38102 q -0.107955,0.019 -0.165108,0.019 -0.165107,0 -0.260362,-0.0826 -0.0889,-0.0825 -0.09525,-0.22861 l -0.0127,-0.26036 q -0.228611,0.29846 -0.577877,0.45722 -0.342916,0.15876 -0.742985,0.15876 z m 0.101604,-0.33022 q 0.336566,0 0.61598,-0.127 0.285763,-0.12701 0.43182,-0.33657 0.05715,-0.0571 0.08255,-0.12065 0.03175,-0.0699 0.03175,-0.12701 v -0.53978 q -0.21591,-0.0826 -0.450871,-0.127 -0.228611,-0.0444 -0.469922,-0.0444 -0.457222,0 -0.742985,0.1905 -0.285764,0.19051 -0.285764,0.50168 0,0.15241 0.05715,0.28576 0.0635,0.13336 0.165108,0.23496 0.107955,0.0953 0.254012,0.15241 0.146057,0.0572 0.311164,0.0572 z" style="font-style:normal;font-variant:normal;font-weight:normal;font-stretch:normal;font-family:Raleway;-inkscape-font-specification:Raleway;text-align:center;text-anchor:middle;fill:#ffffff;fill-opacity:1;stroke-width:0.158757" id="path965" />
            <path d="m 48.579994,107.13908 h -0.431821 v -1.84794 q 0,-0.59058 -0.177808,-0.85729 -0.171458,-0.26672 -0.533425,-0.26672 -0.190509,0 -0.381018,0.0699 -0.190509,0.0698 -0.355617,0.19686 -0.158758,0.127 -0.285764,0.30481 -0.127005,0.17146 -0.184158,0.37467 v 2.02575 h -0.431821 v -3.30851 h 0.393719 v 0.74933 q 0.20321,-0.36196 0.577877,-0.58422 0.381018,-0.22226 0.825539,-0.22226 0.273063,0 0.463572,0.1016 0.190509,0.10161 0.304815,0.28576 0.114305,0.18416 0.165107,0.45088 0.0508,0.26671 0.0508,0.59057 z" style="font-style:normal;font-variant:normal;font-weight:normal;font-stretch:normal;font-family:Raleway;-inkscape-font-specification:Raleway;text-align:center;text-anchor:middle;fill:#ffffff;fill-opacity:1;stroke-width:0.158757" id="path967" />
            <path d="m 51.220726,107.13908 v -4.50872 h 1.866988 q 0.292114,0 0.533426,0.12701 0.247661,0.12065 0.42547,0.32386 0.177808,0.19686 0.279413,0.45087 0.101605,0.25402 0.101605,0.51438 0,0.27941 -0.09526,0.53977 -0.09525,0.25402 -0.266712,0.45088 -0.171459,0.19686 -0.41277,0.31751 -0.234961,0.12066 -0.527075,0.12066 h -1.460569 v 1.66378 z m 0.444521,-2.0575 h 1.441518 q 0.19686,0 0.355617,-0.0826 0.165108,-0.0889 0.279413,-0.22861 0.114306,-0.14605 0.177809,-0.33021 0.0635,-0.19051 0.0635,-0.39372 0,-0.20956 -0.0762,-0.39372 -0.06985,-0.19051 -0.196859,-0.33021 -0.120656,-0.13971 -0.292114,-0.21592 -0.165108,-0.0825 -0.349267,-0.0825 h -1.403416 z" style="font-style:normal;font-variant:normal;font-weight:normal;font-stretch:normal;font-family:Raleway;-inkscape-font-specification:Raleway;text-align:center;text-anchor:middle;fill:#ffffff;fill-opacity:1;stroke-width:0.158757" id="path969" />
            <path d="m 56.442756,107.20258 q -0.361967,0 -0.666782,-0.13336 -0.298464,-0.1397 -0.520724,-0.37467 -0.222261,-0.24131 -0.349267,-0.55247 -0.120655,-0.31117 -0.120655,-0.66678 0,-0.34927 0.120655,-0.65408 0.127006,-0.31117 0.342916,-0.53978 0.222261,-0.23496 0.527075,-0.36832 0.304815,-0.1397 0.660431,-0.1397 0.361968,0 0.660432,0.1397 0.304814,0.13336 0.520724,0.36832 0.21591,0.23496 0.336566,0.53978 0.120656,0.30481 0.120656,0.64773 0,0.0508 0,0.1016 0,0.0508 -0.0063,0.0699 h -2.832234 q 0.01905,0.26672 0.120656,0.49533 0.107955,0.22226 0.273062,0.38737 0.165108,0.1651 0.374668,0.26036 0.21591,0.0889 0.457222,0.0889 0.158757,0 0.317515,-0.0444 0.158757,-0.0444 0.292113,-0.12066 0.133357,-0.0762 0.241312,-0.18415 0.107955,-0.11431 0.165108,-0.24767 l 0.374667,0.10161 q -0.0762,0.18416 -0.21591,0.33657 -0.139706,0.14605 -0.323865,0.26036 -0.184159,0.10795 -0.406419,0.16511 -0.222261,0.0635 -0.463572,0.0635 z m 1.219257,-1.89239 q -0.01905,-0.26671 -0.127006,-0.48262 -0.101604,-0.22226 -0.266712,-0.38102 -0.158758,-0.15876 -0.374668,-0.24766 -0.20956,-0.0889 -0.450871,-0.0889 -0.241312,0 -0.457222,0.0889 -0.21591,0.0889 -0.381018,0.24766 -0.158757,0.15876 -0.260362,0.38102 -0.09526,0.22226 -0.114305,0.48262 z" style="font-style:normal;font-variant:normal;font-weight:normal;font-stretch:normal;font-family:Raleway;-inkscape-font-specification:Raleway;text-align:center;text-anchor:middle;fill:#ffffff;fill-opacity:1;stroke-width:0.158757" id="path971" />
            <path d="m 60.30999,106.98032 q -0.0381,0.019 -0.114305,0.0508 -0.06985,0.0318 -0.165108,0.0635 -0.09525,0.0317 -0.21591,0.0572 -0.120656,0.0254 -0.254012,0.0254 -0.139707,0 -0.266713,-0.0381 -0.127006,-0.0381 -0.22226,-0.11431 -0.09526,-0.0825 -0.152407,-0.20321 -0.05715,-0.12066 -0.05715,-0.27941 v -2.36866 H 58.4049 v -0.34292 h 0.457222 v -1.11765 h 0.43182 v 1.11765 h 0.762036 v 0.34292 h -0.762036 v 2.248 q 0.0127,0.18416 0.127006,0.27306 0.120656,0.0826 0.273063,0.0826 0.184159,0 0.323865,-0.0571 0.139707,-0.0635 0.177809,-0.0889 z" style="font-style:normal;font-variant:normal;font-weight:normal;font-stretch:normal;font-family:Raleway;-inkscape-font-specification:Raleway;text-align:center;text-anchor:middle;fill:#ffffff;fill-opacity:1;stroke-width:0.158757" id="path973" />
            <path d="m 61.687607,107.20258 q -0.234961,0 -0.43817,-0.0762 -0.19686,-0.0825 -0.349267,-0.22226 -0.146057,-0.1397 -0.228611,-0.32386 -0.08255,-0.19051 -0.08255,-0.40642 0,-0.21591 0.101605,-0.40007 0.101605,-0.18416 0.285764,-0.31751 0.184158,-0.13336 0.43817,-0.20321 0.254012,-0.0762 0.558827,-0.0762 0.254012,0 0.514374,0.0444 0.260362,0.0445 0.463572,0.12701 v -0.29846 q 0,-0.43817 -0.247662,-0.69219 -0.247661,-0.26036 -0.685832,-0.26036 -0.254012,0 -0.520725,0.10161 -0.266712,0.1016 -0.539775,0.29211 l -0.152407,-0.28576 q 0.64138,-0.43182 1.244658,-0.43182 0.62233,0 0.977947,0.34926 0.355616,0.34927 0.355616,0.96525 v 1.49232 q 0,0.17781 0.158758,0.17781 v 0.38102 q -0.107955,0.019 -0.165108,0.019 -0.165108,0 -0.260362,-0.0826 -0.0889,-0.0825 -0.09526,-0.22861 l -0.0127,-0.26036 q -0.228611,0.29846 -0.577878,0.45722 -0.342916,0.15876 -0.742985,0.15876 z m 0.101605,-0.33022 q 0.336566,0 0.615979,-0.127 0.285764,-0.12701 0.431821,-0.33657 0.05715,-0.0571 0.08255,-0.12065 0.03175,-0.0699 0.03175,-0.12701 v -0.53978 q -0.21591,-0.0826 -0.450871,-0.127 -0.228611,-0.0444 -0.469923,-0.0444 -0.457221,0 -0.742985,0.1905 -0.285763,0.19051 -0.285763,0.50168 0,0.15241 0.05715,0.28576 0.0635,0.13336 0.165107,0.23496 0.107956,0.0953 0.254012,0.15241 0.146057,0.0572 0.311165,0.0572 z" style="font-style:normal;font-variant:normal;font-weight:normal;font-stretch:normal;font-family:Raleway;-inkscape-font-specification:Raleway;text-align:center;text-anchor:middle;fill:#ffffff;fill-opacity:1;stroke-width:0.158757" id="path975" />
            <path d="m 67.097568,107.13908 h -0.43182 v -1.84794 q 0,-0.59058 -0.177809,-0.85729 -0.171458,-0.26672 -0.533425,-0.26672 -0.190509,0 -0.381018,0.0699 -0.190509,0.0698 -0.355617,0.19686 -0.158757,0.127 -0.285763,0.30481 -0.127006,0.17146 -0.184159,0.37467 v 2.02575 h -0.43182 v -3.30851 h 0.393718 v 0.74933 q 0.20321,-0.36196 0.577878,-0.58422 0.381018,-0.22226 0.825539,-0.22226 0.273062,0 0.463571,0.1016 0.190509,0.10161 0.304815,0.28576 0.114305,0.18416 0.165108,0.45088 0.0508,0.26671 0.0508,0.59057 z" style="font-style:normal;font-variant:normal;font-weight:normal;font-stretch:normal;font-family:Raleway;-inkscape-font-specification:Raleway;text-align:center;text-anchor:middle;fill:#ffffff;fill-opacity:1;stroke-width:0.158757" id="path977" />
            <path d="m 69.351825,107.18353 q -0.342917,0 -0.62868,-0.13971 -0.279413,-0.14606 -0.488973,-0.38102 -0.20321,-0.23496 -0.317515,-0.53977 -0.114306,-0.30482 -0.114306,-0.62868 0,-0.34292 0.107955,-0.65408 0.114306,-0.31752 0.317515,-0.55248 0.20321,-0.23496 0.482623,-0.37467 0.285764,-0.1397 0.62868,-0.1397 0.42547,0 0.736635,0.21591 0.311164,0.20956 0.533425,0.53342 v -0.69218 h 0.387368 v 3.32121 q 0,0.34291 -0.133356,0.60327 -0.127006,0.26672 -0.349267,0.44453 -0.21591,0.1778 -0.514374,0.26671 -0.292114,0.0889 -0.622329,0.0889 -0.571527,0 -0.920794,-0.20321 -0.349266,-0.20321 -0.565176,-0.54612 l 0.266712,-0.20956 q 0.196859,0.31751 0.520725,0.46357 0.323865,0.15241 0.698533,0.15241 0.241311,0 0.457221,-0.0699 0.21591,-0.0635 0.374668,-0.19686 0.165108,-0.127 0.260362,-0.33021 0.09526,-0.19686 0.09526,-0.46357 v -0.65408 q -0.190509,0.31751 -0.520725,0.50167 -0.330215,0.18416 -0.692182,0.18416 z m 0.120655,-0.36197 q 0.190509,0 0.374668,-0.0699 0.184159,-0.0699 0.330215,-0.18416 0.152408,-0.12066 0.254012,-0.26671 0.101605,-0.14606 0.133357,-0.29847 v -1.0224 q -0.06985,-0.17781 -0.190509,-0.33021 -0.120656,-0.15241 -0.273063,-0.26036 -0.152407,-0.10796 -0.330216,-0.17146 -0.171458,-0.0635 -0.349266,-0.0635 -0.279413,0 -0.501674,0.12066 -0.21591,0.11431 -0.368317,0.30481 -0.152407,0.19051 -0.234961,0.43182 -0.0762,0.24132 -0.0762,0.48898 0,0.26671 0.09525,0.50802 0.09525,0.24131 0.260362,0.42547 0.171458,0.17781 0.393718,0.28577 0.222261,0.1016 0.482623,0.1016 z" style="font-style:normal;font-variant:normal;font-weight:normal;font-stretch:normal;font-family:Raleway;-inkscape-font-specification:Raleway;text-align:center;text-anchor:middle;fill:#ffffff;fill-opacity:1;stroke-width:0.158757" id="path979" />
         </g>
         <text id="text109" xml:space="preserve" />
 HEAD style=&quot;font-style:normal;font-weight:normal;font-size:8.41268px;line-height:1.25;font-family:sans-serif;letter-spacing:1.05833px;fill:#f9f9f9;fill-opacity:1;stroke:none;stroke-width:0.210317&quot; x=&quot;21.515045&quot; y=&quot;114.75576&quot; id=&quot;text62&quot;&gt;
         <tspan id="tspan111" style="font-style:normal;font-variant:normal;font-weight:bold;font-stretch:normal;font-family:Raleway;-inkscape-font-specification:'Raleway Bold';fill:#f9f9f9;stroke-width:0.210317" y="114.75576" x="21.515045" sodipodi:role="line">(SUGRA)</tspan>
      </g>

======= style=&quot;font-style:normal;font-weight:normal;font-size:8.41268px;line-height:1.25;font-family:sans-serif;letter-spacing:1.05833px;fill:#ffffff;fill-opacity:1;stroke:none;stroke-width:0.210317&quot; x=&quot;21.515045&quot; y=&quot;114.75576&quot; id=&quot;text985&quot;&gt;<tspan id="tspan983" style="font-style:normal;font-variant:normal;font-weight:bold;font-stretch:normal;font-family:Raleway;-inkscape-font-specification:'Raleway Bold';fill:#ffffff;stroke-width:0.210317" y="114.75576" x="21.515045" sodipodi:role="line">(SUGRA)</tspan>
   </g>

&gt;&gt;&gt;&gt;&gt;&gt;&gt; 3ee77ea (update favicon)
</svg>
