<?xml version="1.0" encoding="UTF-8" standalone="no"?>
<svg
   xmlns:dc="http://purl.org/dc/elements/1.1/"
   xmlns:cc="http://creativecommons.org/ns#"
   xmlns:rdf="http://www.w3.org/1999/02/22-rdf-syntax-ns#"
   xmlns:svg="http://www.w3.org/2000/svg"
   xmlns="http://www.w3.org/2000/svg"
   xmlns:sodipodi="http://sodipodi.sourceforge.net/DTD/sodipodi-0.dtd"
   xmlns:inkscape="http://www.inkscape.org/namespaces/inkscape"
   sodipodi:docname="info.svg"
   inkscape:version="1.0 (4035a4fb49, 2020-05-01)"
   id="svg1346"
   version="1.1"
   viewBox="0 0 135.46666 135.46666"
   height="135.46666mm"
   width="135.46666mm">
  <defs
     id="defs1340" />
  <sodipodi:namedview
     fit-margin-bottom="0"
     fit-margin-right="0"
     fit-margin-left="0"
     fit-margin-top="0"
     inkscape:window-maximized="1"
     inkscape:window-y="-8"
     inkscape:window-x="-8"
     inkscape:window-height="705"
     inkscape:window-width="1366"
     showgrid="false"
     inkscape:document-rotation="0"
     inkscape:current-layer="g1940"
     inkscape:document-units="mm"
     inkscape:cy="266.54354"
     inkscape:cx="435.41004"
     inkscape:zoom="0.9899495"
     inkscape:pageshadow="2"
     inkscape:pageopacity="0.0"
     borderopacity="1.0"
     bordercolor="#666666"
     pagecolor="#ffffff"
     id="base">
    <sodipodi:guide
       id="guide1980"
       orientation="0,511.99997"
       position="0,135.46666" />
    <sodipodi:guide
       id="guide1982"
       orientation="511.99997,0"
       position="135.46666,135.46666" />
    <sodipodi:guide
       id="guide1984"
       orientation="0,-511.99997"
       position="135.46666,0" />
    <sodipodi:guide
       id="guide1986"
       orientation="-511.99997,0"
       position="0,0" />
  </sodipodi:namedview>
  <metadata
     id="metadata1343">
    <rdf:RDF>
      <cc:Work
         rdf:about="">
        <dc:format>image/svg+xml</dc:format>
        <dc:type
           rdf:resource="http://purl.org/dc/dcmitype/StillImage" />
        <dc:title />
      </cc:Work>
    </rdf:RDF>
  </metadata>
  <g
     transform="translate(-13.153572,-104.62382)"
     id="layer1"
     inkscape:groupmode="layer"
     inkscape:label="Layer 1">
    <rect
       y="104.62382"
       x="13.153572"
       height="135.46666"
       width="135.46666"
       id="rect1988"
       style="fill:#14854f;stroke:none;stroke-width:6.00001;stroke-linecap:round;stroke-linejoin:round" />
    <g
       transform="matrix(5.0094745,0,0,5.0094745,-301.59248,-210.12223)"
       id="g1940">
      <circle
         r="11.114549"
         cy="76.351196"
         cx="76.351196"
         id="circle2951"
         style="fill:#fea832;fill-opacity:1;stroke:#fea832;stroke-width:0.704345;stroke-linecap:round;stroke-linejoin:round;stroke-opacity:1" />
      <g
         transform="matrix(0.61731858,0,0,0.60292983,-557.12004,-31.954862)"
         id="g2963">
        <g
           id="g2961"
           transform="matrix(0.81267941,0,0,0.81267941,192.222,30.868852)">
          <path
             transform="matrix(0.10104757,0,0,0.10104757,995.27414,117.22857)"
             d="m 305.35352,470.69922 a 125.63973,125.63973 0 0 0 -2.75782,0.0391 c -0.0227,5.6e-4 -0.0456,0.001 -0.0684,0.002 -0.0756,0.002 -0.15095,0.004 -0.22656,0.006 a 125.63973,125.63973 0 0 0 -2.76758,0.10547 c -0.21245,0.0103 -0.42454,0.0219 -0.63672,0.0332 a 125.63973,125.63973 0 0 0 -2.22851,0.14062 c -0.48923,0.0348 -0.97718,0.0748 -1.46485,0.11523 a 125.63973,125.63973 0 0 0 -1.29101,0.11329 c -23.26722,2.1683 -44.68898,10.6806 -62.52539,23.79101 -0.49573,0.36438 -0.99033,0.73012 -1.48047,1.10156 a 125.63973,125.63973 0 0 0 -0.0312,0.0234 125.63973,125.63973 0 0 0 -1.09766,0.8418 c -0.35948,0.27886 -0.71785,0.55913 -1.07422,0.8418 a 125.63973,125.63973 0 0 0 -0.0625,0.0488 125.63973,125.63973 0 0 0 -1.46874,1.1836 125.63973,125.63973 0 0 0 -0.0352,0.0273 c -0.22858,0.18731 -0.45637,0.37557 -0.6836,0.56445 a 125.63973,125.63973 0 0 0 -0.008,0.008 125.63973,125.63973 0 0 0 -1.64453,1.38867 c -0.16164,0.13911 -0.32345,0.27805 -0.48437,0.41797 a 125.63973,125.63973 0 0 0 -0.0273,0.0234 125.63973,125.63973 0 0 0 -2.01562,1.79102 c -0.0161,0.0146 -0.0328,0.0284 -0.0488,0.043 a 125.63973,125.63973 0 0 0 -0.0488,0.0449 125.63973,125.63973 0 0 0 -2.06836,1.92578 125.63973,125.63973 0 0 0 -0.0527,0.0488 c -0.019,0.0181 -0.0377,0.0366 -0.0566,0.0547 a 125.63973,125.63973 0 0 0 -2.09961,2.05273 c -0.0176,0.0176 -0.0352,0.0351 -0.0527,0.0527 a 125.63973,125.63973 0 0 0 -1.9082,1.95117 c -0.1089,0.11378 -0.2177,0.22761 -0.32617,0.3418 a 125.63973,125.63973 0 0 0 -1.81055,1.94726 c -0.0462,0.0508 -0.0925,0.10149 -0.13867,0.15235 a 125.63973,125.63973 0 0 0 -1.82422,2.05468 c -0.0605,0.0697 -0.12125,0.13918 -0.18164,0.20899 -0.0263,0.0304 -0.0519,0.0614 -0.0781,0.0918 a 125.63973,125.63973 0 0 0 -1.63671,1.93555 125.63973,125.63973 0 0 0 -0.11133,0.13281 c -0.10082,0.12197 -0.20042,0.24483 -0.30078,0.36719 a 125.63973,125.63973 0 0 0 -1.32032,1.64063 c -0.24625,0.31064 -0.491,0.62253 -0.73437,0.93554 a 125.63973,125.63973 0 0 0 -0.84766,1.10547 c -0.44604,0.58694 -0.88637,1.17848 -1.32226,1.77344 a 125.63973,125.63973 0 0 0 -0.25781,0.35351 c -12.46685,17.14098 -20.70156,37.55302 -23.17774,59.70899 -0.0846,0.75714 -0.16327,1.51619 -0.23437,2.27734 a 125.63973,125.63973 0 0 0 -0.13282,1.47461 125.63973,125.63973 0 0 0 -0.006,0.0859 c -0.0311,0.385 -0.0622,0.77028 -0.0898,1.15625 a 125.63973,125.63973 0 0 0 -0.14648,2.30664 c -0.0128,0.24003 -0.0237,0.48032 -0.0352,0.7207 a 125.63973,125.63973 0 0 0 -0.10156,2.6543 c -0.004,0.13212 -0.007,0.26426 -0.01,0.39648 a 125.63973,125.63973 0 0 0 -0.0391,3.03516 125.63973,125.63973 0 0 0 21.82031,70.75781 c 35.97934,75.19388 103.82031,165.0625 103.82031,165.0625 0,0 67.84801,-89.87644 103.82618,-165.07226 a 125.63973,125.63973 0 0 0 21.81445,-70.74805 125.63973,125.63973 0 0 0 -0.0391,-3.10156 125.63973,125.63973 0 0 0 -0.002,-0.0859 c -0.002,-0.0763 -0.004,-0.15225 -0.006,-0.22851 a 125.63973,125.63973 0 0 0 -0.10547,-2.76563 c -0.01,-0.20594 -0.0222,-0.41151 -0.0332,-0.61719 a 125.63973,125.63973 0 0 0 -0.14258,-2.2539 c -0.0352,-0.49378 -0.0744,-0.98634 -0.11523,-1.47852 -0.005,-0.0613 -0.0104,-0.12235 -0.0156,-0.18359 a 125.63973,125.63973 0 0 0 -0.0859,-0.95117 c -2.11729,-22.98946 -10.42545,-44.18203 -23.2461,-61.9004 A 125.63973,125.63973 0 0 0 407.00923,522.01 c -0.3723,-0.50652 -0.74728,-1.01104 -1.12696,-1.51172 a 125.63973,125.63973 0 0 0 -0.67578,-0.88086 c -0.34992,-0.45311 -0.7007,-0.90536 -1.05664,-1.35352 a 125.63973,125.63973 0 0 0 -0.0332,-0.041 125.63973,125.63973 0 0 0 -1.25,-1.55078 c -0.13352,-0.16264 -0.26803,-0.32438 -0.40235,-0.48633 a 125.63973,125.63973 0 0 0 -1.6289,-1.92774 c -0.0703,-0.0814 -0.14042,-0.16291 -0.21094,-0.24414 a 125.63973,125.63973 0 0 0 -1.79492,-2.02344 c -0.057,-0.0629 -0.11282,-0.1267 -0.16992,-0.18945 a 125.63973,125.63973 0 0 0 -0.0156,-0.0176 125.63973,125.63973 0 0 0 -1.87305,-2.01172 125.63973,125.63973 0 0 0 -0.0391,-0.041 c -0.066,-0.0694 -0.13302,-0.1378 -0.19922,-0.20703 a 125.63973,125.63973 0 0 0 -1.9375,-1.98438 125.63973,125.63973 0 0 0 -0.10351,-0.10351 125.63973,125.63973 0 0 0 -2.08399,-2.03321 125.63973,125.63973 0 0 0 -0.0195,-0.0195 125.63973,125.63973 0 0 0 -2.05859,-1.91797 c -0.0879,-0.0801 -0.17557,-0.16037 -0.26367,-0.24023 -0.0266,-0.0241 -0.0534,-0.0481 -0.0801,-0.0723 a 125.63973,125.63973 0 0 0 -1.77149,-1.57031 c -0.18614,-0.1622 -0.37344,-0.32326 -0.56054,-0.48437 a 125.63973,125.63973 0 0 0 -1.69532,-1.4336 c -0.23156,-0.19242 -0.46429,-0.38343 -0.69726,-0.57422 a 125.63973,125.63973 0 0 0 -1.47852,-1.1914 c -0.30934,-0.24565 -0.61994,-0.48964 -0.93164,-0.73242 -0.0289,-0.0225 -0.0571,-0.0459 -0.0859,-0.0684 a 125.63973,125.63973 0 0 0 -1.06054,-0.8125 c -0.621,-0.47238 -1.24697,-0.93744 -1.87696,-1.39844 -0.0255,-0.0187 -0.0506,-0.038 -0.0762,-0.0566 a 125.63973,125.63973 0 0 0 -0.0547,-0.0391 c -17.79952,-12.99008 -39.14111,-21.4116 -62.30665,-23.54688 a 125.63973,125.63973 0 0 0 -1.0664,-0.0957 125.63973,125.63973 0 0 0 -0.25195,-0.0215 c -0.44732,-0.0365 -0.89513,-0.0717 -1.34375,-0.10351 a 125.63973,125.63973 0 0 0 -2.19141,-0.13867 c -0.21216,-0.0114 -0.42429,-0.021 -0.63672,-0.0312 a 125.63973,125.63973 0 0 0 -2.81836,-0.10938 c -0.0742,-0.002 -0.14839,-0.004 -0.22265,-0.006 a 125.63973,125.63973 0 0 0 -3.14454,-0.0391 125.63973,125.63973 0 0 0 -0.36132,0 z"
             style="fill:#ffd93b;fill-opacity:1;stroke:#ffffff;stroke-width:22.6772;stroke-linecap:round;stroke-linejoin:round;stroke-opacity:1"
             id="path2953" />
          <rect
             ry="2.5837994"
             y="168.02429"
             x="1023.5821"
             height="5.1675987"
             width="5.1675987"
             id="rect2957"
             style="fill:#fea832;fill-opacity:1;stroke:none;stroke-width:0.75;stroke-linecap:round;stroke-linejoin:round;stroke-opacity:1" />
          <rect
             rx="2.3980834"
             ry="2.3980834"
             style="fill:#fea832;fill-opacity:1;stroke:none;stroke-width:0.896417;stroke-linecap:round;stroke-linejoin:round;stroke-opacity:1"
             id="rect2959"
             width="4.7961669"
             height="17.782932"
             x="1023.7678"
             y="174.86826" />
        </g>
      </g>
    </g>
  </g>
</svg>
