<?xml version="1.0" encoding="UTF-8" standalone="no"?>
<svg
   xmlns:dc="http://purl.org/dc/elements/1.1/"
   xmlns:cc="http://creativecommons.org/ns#"
   xmlns:rdf="http://www.w3.org/1999/02/22-rdf-syntax-ns#"
   xmlns:svg="http://www.w3.org/2000/svg"
   xmlns="http://www.w3.org/2000/svg"
   xmlns:sodipodi="http://sodipodi.sourceforge.net/DTD/sodipodi-0.dtd"
   xmlns:inkscape="http://www.inkscape.org/namespaces/inkscape"
   width="47.957508mm"
   height="5.1099858mm"
   viewBox="0 0 47.957508 5.1099857"
   version="1.1"
   id="svg900"
   inkscape:version="1.0 (4035a4fb49, 2020-05-01)"
   sodipodi:docname="logo.svg">
  <defs
     id="defs894" />
  <sodipodi:namedview
     id="base"
     pagecolor="#ffffff"
     bordercolor="#666666"
     borderopacity="1.0"
     inkscape:pageopacity="0.0"
     inkscape:pageshadow="2"
     inkscape:zoom="1.4"
     inkscape:cx="145.65835"
     inkscape:cy="89.534205"
     inkscape:document-units="mm"
     inkscape:current-layer="layer1"
     inkscape:document-rotation="0"
     showgrid="false"
     fit-margin-top="0"
     fit-margin-left="0"
     fit-margin-right="0"
     fit-margin-bottom="0"
     inkscape:window-width="1366"
     inkscape:window-height="705"
     inkscape:window-x="-8"
     inkscape:window-y="-8"
     inkscape:window-maximized="1" />
  <metadata
     id="metadata897">
    <rdf:RDF>
      <cc:Work
         rdf:about="">
        <dc:format>image/svg+xml</dc:format>
        <dc:type
           rdf:resource="http://purl.org/dc/dcmitype/StillImage" />
        <dc:title></dc:title>
      </cc:Work>
    </rdf:RDF>
  </metadata>
  <g
     inkscape:label="Layer 1"
     inkscape:groupmode="layer"
     id="layer1"
     transform="translate(9.679591,-48.849784)">
    <g
       style="font-style:normal;font-weight:normal;font-size:6.9241px;line-height:1.25;font-family:sans-serif;fill:#ffffff;fill-opacity:1;stroke:none;stroke-width:0.173104"
       id="text861"
       aria-label="Al-MA'TSURAT">
      <path
         id="path30"
         style="font-style:normal;font-variant:normal;font-weight:bold;font-stretch:normal;font-family:Raleway;-inkscape-font-specification:'Raleway Bold';fill:#ffffff;fill-opacity:1;stroke-width:0.173104"
         d="m -7.8031599,48.988266 h 0.8447402 l 1.869507,4.916111 h -0.9832222 l -0.4569906,-1.225566 h -1.7171768 l -0.4500665,1.225566 H -9.679591 Z m 1.1009319,3.018908 -0.6785618,-1.931824 -0.7062582,1.931824 z" />
      <path
         id="path32"
         style="font-style:normal;font-variant:normal;font-weight:bold;font-stretch:normal;font-family:Raleway;-inkscape-font-specification:'Raleway Bold';fill:#ffffff;fill-opacity:1;stroke-width:0.173104"
         d="m -4.6466358,48.849784 h 0.9278294 v 3.891344 q 0,0.200799 0.096937,0.311585 0.096937,0.110785 0.276964,0.110785 0.083089,0 0.1800266,-0.0277 0.1038615,-0.0277 0.1938748,-0.06924 l 0.1246338,0.706258 q -0.1869507,0.09001 -0.4362183,0.138482 -0.2492676,0.04847 -0.4500665,0.04847 -0.4362183,0 -0.6785618,-0.228496 -0.2354194,-0.235419 -0.2354194,-0.664713 z" />
      <path
         id="path34"
         style="font-style:normal;font-variant:normal;font-weight:bold;font-stretch:normal;font-family:Raleway;-inkscape-font-specification:'Raleway Bold';fill:#ffffff;fill-opacity:1;stroke-width:0.173104"
         d="m -2.604892,52.42262 v -0.837816 h 2.09800232 v 0.837816 z" />
      <path
         id="path36"
         style="font-style:normal;font-variant:normal;font-weight:bold;font-stretch:normal;font-family:Raleway;-inkscape-font-specification:'Raleway Bold';fill:#ffffff;fill-opacity:1;stroke-width:0.173104"
         d="M 4.4090048,53.904377 V 50.65005 L 3.1418945,53.073485 H 2.622587 L 1.3554767,50.65005 v 3.254327 H 0.39995091 V 48.988266 H 1.4247177 l 1.454061,2.797336 1.4679092,-2.797336 h 1.0178427 v 4.916111 z" />
      <path
         id="path38"
         style="font-style:normal;font-variant:normal;font-weight:bold;font-stretch:normal;font-family:Raleway;-inkscape-font-specification:'Raleway Bold';fill:#ffffff;fill-opacity:1;stroke-width:0.173104"
         d="m 7.7895888,48.988266 h 0.8447401 l 1.8695071,4.916111 H 9.5206137 L 9.0636231,52.678811 H 7.3464464 L 6.8963799,53.904377 H 5.9131577 Z M 8.8905206,52.007174 8.2119589,50.07535 7.5057007,52.007174 Z" />
      <path
         id="path40"
         style="font-style:normal;font-variant:normal;font-weight:bold;font-stretch:normal;font-family:Raleway;-inkscape-font-specification:'Raleway Bold';fill:#ffffff;fill-opacity:1;stroke-width:0.173104"
         d="m 10.47971,50.449251 v -1.550998 h 0.789347 v 1.550998 z" />
      <path
         id="path42"
         style="font-style:normal;font-variant:normal;font-weight:bold;font-stretch:normal;font-family:Raleway;-inkscape-font-specification:'Raleway Bold';fill:#ffffff;fill-opacity:1;stroke-width:0.173104"
         d="m 15.869255,49.826082 h -1.57177 v 4.078295 h -0.948602 v -4.078295 h -1.571771 v -0.837816 h 4.092143 z" />
      <path
         id="path44"
         style="font-style:normal;font-variant:normal;font-weight:bold;font-stretch:normal;font-family:Raleway;-inkscape-font-specification:'Raleway Bold';fill:#ffffff;fill-opacity:1;stroke-width:0.173104"
         d="m 19.408444,50.276149 q -0.04847,-0.04847 -0.180027,-0.131558 -0.124634,-0.08309 -0.311584,-0.159255 -0.180027,-0.08309 -0.394674,-0.138482 -0.214647,-0.05539 -0.436218,-0.05539 -0.394674,0 -0.588549,0.145406 -0.193875,0.145406 -0.193875,0.408522 0,0.15233 0.06924,0.256191 0.07616,0.09694 0.214647,0.173103 0.138482,0.07616 0.346205,0.138482 0.214647,0.06232 0.491611,0.131558 0.360054,0.09694 0.650866,0.207723 0.297736,0.110785 0.498535,0.276964 0.207723,0.166178 0.318509,0.401598 0.110785,0.228495 0.110785,0.567776 0,0.394673 -0.15233,0.678561 -0.145406,0.276964 -0.401598,0.450067 -0.249267,0.173102 -0.581624,0.256192 -0.325433,0.07616 -0.685486,0.07616 -0.553928,0 -1.094008,-0.166179 -0.54008,-0.166178 -0.969374,-0.470838 l 0.42237,-0.823968 q 0.06232,0.06232 0.221571,0.166178 0.166179,0.09694 0.38775,0.200799 0.221571,0.09694 0.491611,0.166178 0.27004,0.06924 0.553928,0.06924 0.789348,0 0.789348,-0.505459 0,-0.159254 -0.09001,-0.27004 -0.09001,-0.110785 -0.256191,-0.193875 -0.166179,-0.08309 -0.401598,-0.15233 -0.23542,-0.06924 -0.526232,-0.15233 -0.353129,-0.09694 -0.616245,-0.207723 -0.256191,-0.11771 -0.429294,-0.27004 -0.173102,-0.159254 -0.263116,-0.360053 -0.08309,-0.207723 -0.08309,-0.491611 0,-0.373902 0.138482,-0.664714 0.138482,-0.290812 0.380826,-0.484687 0.249267,-0.193875 0.5747,-0.290812 0.325433,-0.103861 0.699334,-0.103861 0.519307,0 0.955526,0.166178 0.436218,0.159254 0.761651,0.380825 z" />
      <path
         id="path46"
         style="font-style:normal;font-variant:normal;font-weight:bold;font-stretch:normal;font-family:Raleway;-inkscape-font-specification:'Raleway Bold';fill:#ffffff;fill-opacity:1;stroke-width:0.173104"
         d="m 22.803201,53.094257 q 0.339281,0 0.567776,-0.138482 0.23542,-0.138482 0.373902,-0.360053 0.145406,-0.221571 0.200799,-0.505459 0.06232,-0.290812 0.06232,-0.595473 v -2.506524 h 0.948601 v 2.506524 q 0,0.50546 -0.124634,0.948602 -0.117709,0.443142 -0.380825,0.775499 -0.256192,0.332357 -0.664714,0.526232 -0.408522,0.193874 -0.976298,0.193874 -0.588548,0 -1.003994,-0.200798 -0.408522,-0.207723 -0.664714,-0.54008 Q 20.885225,52.858838 20.767516,52.415696 20.65673,51.972553 20.65673,51.49479 v -2.506524 h 0.955526 v 2.506524 q 0,0.311585 0.05539,0.602397 0.06232,0.283888 0.200799,0.505459 0.145406,0.221571 0.373901,0.360053 0.228495,0.131558 0.560852,0.131558 z" />
      <path
         id="path48"
         style="font-style:normal;font-variant:normal;font-weight:bold;font-stretch:normal;font-family:Raleway;-inkscape-font-specification:'Raleway Bold';fill:#ffffff;fill-opacity:1;stroke-width:0.173104"
         d="m 25.919044,53.904377 v -4.916111 h 2.174168 q 0.339281,0 0.623169,0.145406 0.290812,0.138482 0.498535,0.373902 0.207723,0.228495 0.325433,0.526231 0.117709,0.290812 0.117709,0.588549 0,0.477763 -0.242343,0.872436 -0.23542,0.38775 -0.643941,0.560852 l 1.121704,1.848735 H 28.820242 L 27.816248,52.256441 H 26.87457 v 1.647936 z m 0.955526,-2.485752 h 1.19787 q 0.131557,0 0.242343,-0.06232 0.11771,-0.06232 0.200799,-0.166178 0.08309,-0.110786 0.131558,-0.256192 0.04847,-0.145406 0.04847,-0.311584 0,-0.173103 -0.05539,-0.318509 -0.05539,-0.145406 -0.152331,-0.249268 -0.09001,-0.110785 -0.214647,-0.166178 -0.117709,-0.06232 -0.242343,-0.06232 H 26.87457 Z" />
      <path
         id="path50"
         style="font-style:normal;font-variant:normal;font-weight:bold;font-stretch:normal;font-family:Raleway;-inkscape-font-specification:'Raleway Bold';fill:#ffffff;fill-opacity:1;stroke-width:0.173104"
         d="m 31.834608,48.988266 h 0.84474 l 1.869507,4.916111 h -0.983222 l -0.456991,-1.225566 h -1.717176 l -0.450067,1.225566 h -0.983222 z m 1.100932,3.018908 -0.678562,-1.931824 -0.706258,1.931824 z" />
      <path
         id="path52"
         style="font-style:normal;font-variant:normal;font-weight:bold;font-stretch:normal;font-family:Raleway;-inkscape-font-specification:'Raleway Bold';fill:#ffffff;fill-opacity:1;stroke-width:0.173104"
         d="m 38.277916,49.826082 h -1.571771 v 4.078295 h -0.948601 v -4.078295 h -1.571771 v -0.837816 h 4.092143 z" />
    </g>
  </g>
</svg>
