<?xml version="1.0" encoding="UTF-8" standalone="no"?>
<svg
   xmlns:dc="http://purl.org/dc/elements/1.1/"
   xmlns:cc="http://creativecommons.org/ns#"
   xmlns:rdf="http://www.w3.org/1999/02/22-rdf-syntax-ns#"
   xmlns:svg="http://www.w3.org/2000/svg"
   xmlns="http://www.w3.org/2000/svg"
   xmlns:sodipodi="http://sodipodi.sourceforge.net/DTD/sodipodi-0.dtd"
   xmlns:inkscape="http://www.inkscape.org/namespaces/inkscape"
   height="512"
   width="512"
   inkscape:version="1.0 (4035a4fb49, 2020-05-01)"
   sodipodi:docname="settings.svg"
   xml:space="preserve"
   viewBox="0 0 512 512"
   y="0px"
   x="0px"
   id="Capa_1"
   version="1.1"><metadata
   id="metadata45"><rdf:RDF><cc:Work
       rdf:about=""><dc:format>image/svg+xml</dc:format><dc:type
         rdf:resource="http://purl.org/dc/dcmitype/StillImage" /><dc:title></dc:title></cc:Work></rdf:RDF></metadata><defs
   id="defs43" /><sodipodi:namedview
   fit-margin-bottom="0"
   fit-margin-right="0"
   fit-margin-left="0"
   fit-margin-top="0"
   inkscape:current-layer="Capa_1"
   inkscape:window-maximized="1"
   inkscape:window-y="-8"
   inkscape:window-x="-8"
   inkscape:cy="421.31494"
   inkscape:cx="488.46482"
   inkscape:zoom="0.37150727"
   showgrid="false"
   id="namedview41"
   inkscape:window-height="705"
   inkscape:window-width="1366"
   inkscape:pageshadow="2"
   inkscape:pageopacity="0"
   guidetolerance="10"
   gridtolerance="10"
   objecttolerance="10"
   borderopacity="1"
   bordercolor="#666666"
   pagecolor="#ffffff" />



<rect
   style="fill:#14854f;stroke:none;stroke-width:22.6772;stroke-linecap:round;stroke-linejoin:round"
   id="rect1988"
   width="511.99994"
   height="511.99994"
   x="-0.28491139"
   y="-0.28492004" /><g
   transform="matrix(0.86331021,0,0,0.86331021,34.992586,34.992586)"
   id="g921"><circle
     style="fill:#ffd400"
     cx="256"
     cy="256"
     r="256"
     id="circle2" /><path
     style="fill:#fea832;fill-opacity:1"
     d="m 448,287.724 v -63.449 l -52.051,-10.35 c -2.924,-9.45 -6.525,-18.45 -11.25,-27.225 l 29.026,-43.425 -45,-45 -43.425,29.026 c -8.775,-4.725 -17.776,-8.326 -27.225,-11.25 L 287.724,64 h -63.449 l -10.35,52.051 c -9.45,2.924 -18.45,6.525 -27.225,11.25 l -43.425,-29.026 -45,45 29.026,43.425 c -4.725,8.775 -8.326,17.776 -11.25,27.225 L 64,224.276 v 63.449 l 52.051,10.35 c 2.924,9.45 6.525,18.45 11.25,27.225 l -29.026,43.425 45,45 43.425,-29.026 c 8.775,4.725 17.776,8.326 27.225,11.25 L 224.276,448 h 63.449 l 10.35,-52.051 c 9.45,-2.924 18.45,-6.525 27.225,-11.25 l 43.425,29.026 45,-45 -29.026,-43.425 c 4.725,-8.775 8.326,-17.776 11.25,-27.225 z M 256,334.75 c -43.425,0 -78.75,-35.325 -78.75,-78.75 0,-43.425 35.325,-78.75 78.75,-78.75 43.425,0 78.75,35.325 78.75,78.75 0,43.425 -35.325,78.75 -78.75,78.75 z"
     id="path6" /><path
     style="fill:#fea832;fill-opacity:1"
     d="m 395.949,298.075 c -2.924,9.45 -6.525,18.45 -11.25,27.225 l 29.026,43.425 -45,45 -43.425,-29.026 c -8.775,4.725 -17.776,8.326 -27.225,11.25 L 287.724,448 H 256 V 334.75 c 43.425,0 78.75,-35.325 78.75,-78.75 0,-43.425 -35.325,-78.75 -78.75,-78.75 V 64 h 31.724 l 10.35,52.051 c 9.45,2.924 18.45,6.525 27.225,11.25 l 43.425,-29.026 45,45 -29.025,43.425 c 4.725,8.775 8.326,17.776 11.25,27.225 L 448,224.276 v 63.449 z"
     id="path8" /></g>
<g
   id="g10">
</g>
<g
   id="g12">
</g>
<g
   id="g14">
</g>
<g
   id="g16">
</g>
<g
   id="g18">
</g>
<g
   id="g20">
</g>
<g
   id="g22">
</g>
<g
   id="g24">
</g>
<g
   id="g26">
</g>
<g
   id="g28">
</g>
<g
   id="g30">
</g>
<g
   id="g32">
</g>
<g
   id="g34">
</g>
<g
   id="g36">
</g>
<g
   id="g38">
</g>
</svg>
